<?xml version="1.0" standalone="no"?><!DOCTYPE svg PUBLIC "-//W3C//DTD SVG 1.1//EN"
  "http://www.w3.org/Graphics/SVG/1.1/DTD/svg11.dtd">
<svg t="1572856759197" class="icon" viewBox="0 0 1039 1024" version="1.1" xmlns="http://www.w3.org/2000/svg" p-id="1110"
     width="20" height="20">
  <defs>
    <style type="text/css"></style>
  </defs>
  <path
    d="M1039.420543 980.691172a43.308828 43.308828 0 0 1-43.308828 43.308828H346.47929a43.308828 43.308828 0 0 1 0-86.617657h649.632425a43.308828 43.308828 0 0 1 43.308828 43.308829zM274.586635 790.998504l-199.653699-113.902219a43.308828 43.308828 0 0 0-64.963242 35.946328L0.008663 996.28235a23.386767 23.386767 0 0 0 35.946328 20.355149L276.318988 866.355865a43.308828 43.308828 0 0 0-1.732353-75.357361zM173.243977 625.125691l98.31104 56.301477a129.926485 129.926485 0 0 0 177.133108-48.505888l216.544141-381.983865a129.926485 129.926485 0 0 0-48.505887-177.133108L519.714603 17.50283a129.926485 129.926485 0 0 0-177.999284 48.072799l-216.544142 381.983866A129.926485 129.926485 0 0 0 173.243977 625.125691z"
    fill="#3E2AD1" p-id="1111"></path>
</svg>
