<?xml version="1.0" standalone="no"?><!DOCTYPE svg PUBLIC "-//W3C//DTD SVG 1.1//EN"
  "http://www.w3.org/Graphics/SVG/1.1/DTD/svg11.dtd">
<svg t="1571160639809" class="icon" viewBox="0 0 1024 1024" version="1.1" xmlns="http://www.w3.org/2000/svg" p-id="2591"
     width="16" height="16">
  <defs>
    <style type="text/css"></style>
  </defs>
  <path
    d="M819.2 392.533333c-44.373333 0-81.92 13.653333-116.053333 37.546667l-40.96-61.44 47.786666-109.226667h23.893334c10.24-3.413333 17.066667-10.24 17.066666-20.48s-6.826667-17.066667-17.066666-17.066666h-136.533334c-10.24 0-17.066667 6.826667-17.066666 17.066666s6.826667 17.066667 17.066666 17.066667h75.093334l-44.373334 98.986667-283.306666-30.72 30.72-78.506667c0-6.826667 0-13.653333-3.413334-17.066667-3.413333-3.413333-6.826667-6.826667-13.653333-6.826666H273.066667c-54.613333 0-102.4 0-102.4 51.2 0 17.066667 6.826667 30.72 17.066666 40.96 10.24 10.24 23.893333 13.653333 37.546667 10.24 10.24-3.413333 13.653333-10.24 13.653333-20.48s-10.24-17.066667-20.48-13.653334c-3.413333 0-6.826667 0-6.826666-3.413333-3.413333-3.413333-6.826667-6.826667-6.826667-13.653333 0-13.653333 6.826667-17.066667 68.266667-17.066667h61.44L307.2 334.506667l-30.72 71.68c-23.893333-10.24-47.786667-13.653333-71.68-13.653334-112.64 0-204.8 92.16-204.8 204.8s92.16 204.8 204.8 204.8 204.8-92.16 204.8-204.8c0-75.093333-40.96-139.946667-102.4-177.493333l20.48-44.373333 187.733333 266.24 3.413334 3.413333h3.413333c3.413333 0 3.413333 3.413333 6.826667 3.413333l88.746666-6.826666c20.48 92.16 102.4 160.426667 197.973334 160.426666 112.64 0 204.8-92.16 204.8-204.8s-88.746667-204.8-201.386667-204.8z m-443.733333 204.8c0 95.573333-75.093333 170.666667-170.666667 170.666667s-170.666667-75.093333-170.666667-170.666667 75.093333-170.666667 170.666667-170.666666c20.48 0 40.96 3.413333 58.026667 10.24l-75.093334 170.666666c-3.413333 10.24 0 17.066667 10.24 23.893334 10.24 3.413333 17.066667 0 23.893334-10.24l75.093333-167.253334c44.373333 27.306667 78.506667 81.92 78.506667 143.36z m273.066666 0c0-44.373333 17.066667-85.333333 47.786667-116.053333l75.093333 119.466667-122.88 6.826666v-10.24z m-122.88 0l-167.253333-235.52 256 27.306667-88.746667 208.213333z m30.72 17.066667l92.16-208.213333 30.72 47.786666c-37.546667 37.546667-61.44 88.746667-61.44 146.773334v10.24l-61.44 3.413333z m262.826667 153.6c-78.506667 0-146.773333-54.613333-163.84-126.293333l146.773333-10.24c6.826667 0 10.24-3.413333 13.653334-10.24s3.413333-10.24 0-17.066667l-95.573334-146.773333c27.306667-20.48 61.44-30.72 98.986667-30.72 95.573333 0 170.666667 75.093333 170.666667 170.666666s-75.093333 170.666667-170.666667 170.666667z"
    fill="" p-id="2592"></path>
</svg>
