<?xml version="1.0" standalone="no"?><!DOCTYPE svg PUBLIC "-//W3C//DTD SVG 1.1//EN"
  "http://www.w3.org/Graphics/SVG/1.1/DTD/svg11.dtd">
<svg t="1571160838947" class="icon" viewBox="0 0 1024 1024" version="1.1" xmlns="http://www.w3.org/2000/svg" p-id="4053"
     width="16" height="16">
  <defs>
    <style type="text/css"></style>
  </defs>
  <path
    d="M917.333333 216.448V632.746667c0 49.856-29.824 108.821333-69.973333 137.92L589.354667 957.44c-43.904 31.786667-110.762667 31.850667-154.752 0L176.661333 770.645333C136.64 741.674667 106.666667 682.410667 106.666667 632.725333V216.448c0-54.4 38.592-108.693333 89.941333-124.970667 17.194667-6.528 46.912-15.616 87.466667-24.554666C352.853333 51.754667 429.44 42.666667 512 42.666667c82.56 0 159.146667 9.088 227.925333 24.256 40.746667 8.981333 70.549333 18.112 87.701334 24.64C878.613333 108.309333 917.333333 162.368 917.333333 216.448z m-725.333333 0V632.746667c0 22.442667 16.96 55.936 34.709333 68.8l257.962667 186.837333c14.101333 10.197333 40.597333 10.176 54.656 0l257.962667-186.837333C815.210667 688.554667 832 655.36 832 632.746667V216.448c0-17.557333-15.466667-38.954667-31.296-43.904l-2.645333-0.917333a327.04 327.04 0 0 0-18.816-6.293334 725.546667 725.546667 0 0 0-57.706667-15.082666C658.56 136.362667 588.096 128 512 128c-76.096 0-146.56 8.362667-209.536 22.250667a725.546667 725.546667 0 0 0-57.706667 15.082666c-9.6 2.965333-15.957333 5.184-18.816 6.293334l-3.2 1.066666C207.274667 177.344 192 198.613333 192 216.469333z m179.498667 244.053333L448 537.002667l204.501333-204.501334a42.666667 42.666667 0 0 1 60.330667 60.330667l-234.666667 234.666667a42.666667 42.666667 0 0 1-60.330666 0l-106.666667-106.666667a42.666667 42.666667 0 0 1 60.330667-60.330667z"
    fill="" p-id="4054"></path>
</svg>
