<?xml version="1.0" standalone="no"?><!DOCTYPE svg PUBLIC "-//W3C//DTD SVG 1.1//EN"
  "http://www.w3.org/Graphics/SVG/1.1/DTD/svg11.dtd">
<svg t="1571833654511" class="icon" viewBox="0 0 1024 1024" version="1.1" xmlns="http://www.w3.org/2000/svg" p-id="2859"
     width="16" height="16">
  <defs>
    <style type="text/css"></style>
  </defs>
  <path
    d="M691.99872 505.76384a10.9568 10.9568 0 0 0-2.42688-4.53632L535.552 244.39296h0.03584l-25.66656-42.78784-25.66144 42.78784h0.03072L329.28768 502.86592a10.41408 10.41408 0 0 0-0.93696 1.9968 208.45568 208.45568 0 0 0-27.07968 102.49216c0 115.0464 93.59872 208.64512 208.66048 208.64512 115.05152 0 208.64-93.59872 208.64-208.64512a208.27136 208.27136 0 0 0-26.5728-101.59104z m-182.06208 288.27648c-102.9376 0-186.69568-83.74272-186.69568-186.68544a186.46528 186.46528 0 0 1 25.18016-93.33248c0.31232-0.52736 0.55808-1.07008 0.77312-1.62816l160.73728-268.04224 160.7168 268.0064c0.20992 0.56832 0.48128 1.1264 0.78848 1.664a186.42432 186.42432 0 0 1 25.18016 93.33248c-0.00512 102.9376-83.75296 186.68544-186.68032 186.68544z"
    fill="#707070" p-id="2860"></path>
</svg>
