<?xml version="1.0" standalone="no"?><!DOCTYPE svg PUBLIC "-//W3C//DTD SVG 1.1//EN"
  "http://www.w3.org/Graphics/SVG/1.1/DTD/svg11.dtd">
<svg t="1571161392757" class="icon" viewBox="0 0 1024 1024" version="1.1" xmlns="http://www.w3.org/2000/svg" p-id="2557"
     width="16" height="16">
  <defs>
    <style type="text/css"></style>
  </defs>
  <path
    d="M938.666667 785.066667h-85.333334a17.066667 17.066667 0 0 1-17.066666-17.066667v-68.266667H187.733333v68.266667a17.066667 17.066667 0 0 1-17.066666 17.066667H85.333333a17.066667 17.066667 0 0 1-17.066666-17.066667V256a17.066667 17.066667 0 0 1 17.066666-17.066667h85.333334a17.066667 17.066667 0 0 1 17.066666 17.066667v94.0032C207.4112 332.8 230.229333 324.266667 256 324.266667c27.921067 0 52.0704 10.001067 71.816533 29.7472 16.042667 16.042667 25.838933 34.696533 29.2352 55.586133H768c4.539733 0 8.874667 1.792 12.066133 5.000533L836.266667 470.801067V426.666667a17.066667 17.066667 0 0 1 17.066666-17.066667h85.333334a17.066667 17.066667 0 0 1 17.066666 17.066667v341.333333a17.066667 17.066667 0 0 1-17.066666 17.066667z m-68.266667-34.133334h51.2V443.733333h-51.2v307.2zM102.4 750.933333h51.2V429.226667v-4.232534V273.066667H102.4v477.866666z m85.333333-85.333333h648.533334v-51.2H341.333333a17.066667 17.066667 0 0 1-17.066666-17.066667v-68.266666h-69.9392H187.733333v136.533333z m170.666667-85.333333h477.866667v-61.201067L760.9344 443.733333H358.4v136.533334z m-103.7312-85.333334h3.874133c17.2544-0.443733 32.085333-7.1168 44.885334-20.3776 13.687467-13.226667 20.360533-28.040533 20.821333-45.704533v-2.0992V426.666667c0-18.7904-6.741333-34.645333-20.599467-48.520534C290.389333 364.8512 274.7904 358.4 256 358.4c-18.8928 0-34.850133 6.519467-48.708267 19.950933-12.509867 12.987733-19.0464 28.450133-19.5584 46.830934v4.0448c0.443733 17.373867 6.912 32.273067 19.746134 45.1072 13.380267 13.397333 28.8256 20.138667 47.189333 20.599466z"
    p-id="2558"></path>
</svg>
