<?xml version="1.0" standalone="no"?><!DOCTYPE svg PUBLIC "-//W3C//DTD SVG 1.1//EN"
  "http://www.w3.org/Graphics/SVG/1.1/DTD/svg11.dtd">
<svg t="1571041509579" class="icon" viewBox="0 0 1024 1024" version="1.1" xmlns="http://www.w3.org/2000/svg"
     p-id="20233" width="16" height="16">
  <defs>
    <style type="text/css"></style>
  </defs>
  <path
    d="M832 576H192v42.666667h640v-42.666667z m-81.792-42.666667H853.333333a21.333333 21.333333 0 0 1 21.333334 21.333334v85.333333a21.333333 21.333333 0 0 1-21.333334 21.333333h-42.666666v341.333334a21.333333 21.333333 0 0 1-21.333334 21.333333h-64a21.333333 21.333333 0 0 1-21.290666-20.074667L692.672 810.666667H331.306667l-11.370667 193.258666A21.333333 21.333333 0 0 1 298.666667 1024h-64a21.333333 21.333333 0 0 1-21.333334-21.333333V661.333333H170.666667a21.333333 21.333333 0 0 1-21.333334-21.333333v-85.333333a21.333333 21.333333 0 0 1 21.333334-21.333334h103.125333l-36.096-234.666666H213.333333a21.333333 21.333333 0 0 1-21.034666-17.834667l-42.666667-256A21.333333 21.333333 0 0 1 170.666667 0h682.666666a21.333333 21.333333 0 0 1 21.034667 24.832l-42.666667 256A21.333333 21.333333 0 0 1 810.666667 298.666667h-24.362667l-36.096 234.666666z m-43.178667 0l36.096-234.666666h-83.370666l-18.048 234.666666h65.322666z m-108.117333 0l18.048-234.666666H533.333333v234.666666h65.578667zM490.666667 533.333333V298.666667h-83.626667l18.048 234.666666H490.666667z m-108.373334 0l-18.048-234.666666h-83.370666l36.096 234.666666h65.322666z m-42.176 128l-6.272 106.666667H690.133333l-6.272-106.666667H340.117333zM768 661.333333h-41.386667l18.837334 320H768V661.333333zM278.549333 981.333333l18.816-320H256v320h22.549333zM828.16 42.666667H195.84l35.562667 213.333333h561.194666L828.16 42.666667z"
    fill="#000000" p-id="20234"></path>
</svg>
