<?xml version="1.0" standalone="no"?><!DOCTYPE svg PUBLIC "-//W3C//DTD SVG 1.1//EN"
  "http://www.w3.org/Graphics/SVG/1.1/DTD/svg11.dtd">
<svg t="1571040686402" class="icon" viewBox="0 0 1024 1024" version="1.1" xmlns="http://www.w3.org/2000/svg"
     p-id="12083" width="16" height="16">
  <defs>
    <style type="text/css"></style>
  </defs>
  <path
    d="M973.44512 233.25696c-6.539947-51.961173-47.616-93.201067-99.49184-100.020907-5.102933-30.28992-24.855893-56.715947-53.38112-69.666133C727.76704 21.387947 629.050027 0 527.14496 0l-30.28992 0c-101.905067 0-200.62208 21.387947-293.4272 63.56992-28.521813 12.96384-48.278187 39.3728-53.38112 69.666133-51.87584 6.81984-92.951893 48.063147-99.49184 100.020907C21.620053 240.278187 0 266.222933 0 297.291093l0 82.582187c0 30.685867 21.142187 56.337067 49.547947 63.720107l0 398.731947c0 67.252907 50.537813 122.815147 115.613013 130.99008L165.16096 1024l132.130133 0 0-49.547947 429.417813 0L726.708907 1024l132.130133 0 0-50.688c65.071787-8.174933 115.613013-63.737173 115.613013-130.99008L974.452053 443.589973c28.409173-7.38304 49.547947-33.030827 49.547947-63.720107L1024 297.291093C1024 266.222933 1002.379947 240.278187 973.44512 233.25696zM49.547947 408.477013c-9.86112-5.730987-16.51712-16.401067-16.51712-28.607147L33.030827 297.291093c0-12.20608 6.656-22.87616 16.51712-28.59008L49.547947 408.477013zM217.105067 93.631147c88.459947-40.215893 182.586027-60.596907 279.749973-60.596907l30.28992 0c97.163947 0 191.290027 20.381013 279.749973 60.596907 16.349867 7.430827 28.258987 21.701973 33.06496 38.498987l-36.51584 0c-2.69312-3.519147-6.06208-6.52288-10.24-8.424107-84.118187-38.249813-173.64992-57.64096-266.059093-57.64096l-30.28992 0c-92.422827 0-181.940907 19.391147-266.059093 57.64096-4.194987 1.88416-7.563947 4.90496-10.257067 8.424107L184.02304 132.130133C188.829013 115.33312 200.738133 101.061973 217.105067 93.631147zM724.841813 132.130133 299.14112 132.130133c63.5392-21.85216 129.785173-33.030827 197.71392-33.030827l30.28992 0C595.060053 99.095893 661.306027 110.277973 724.841813 132.130133zM264.260267 990.969173 264.260267 990.969173 198.1952 990.969173l0-16.51712L264.260267 974.452053 264.260267 990.969173zM825.8048 990.969173 759.739733 990.969173l0-16.51712 66.065067 0L825.8048 990.969173zM941.421227 842.32192 941.421227 842.32192c-0.003413 54.65088-44.448427 99.095893-99.099307 99.095893l-115.613013 0L297.291093 941.417813 181.67808 941.417813c-54.65088 0-99.095893-44.445013-99.095893-99.095893L82.582187 346.83904l858.83904 0L941.421227 842.32192zM941.421227 313.808213 82.582187 313.808213 82.582187 247.743147c0-45.53728 37.044907-82.582187 82.578773-82.582187l693.67808 0c45.533867 0 82.582187 37.044907 82.582187 82.582187L941.421227 313.808213zM990.969173 379.869867c0 12.20608-6.656 22.87616-16.51712 28.59008l0-139.776c9.86112 5.71392 16.51712 16.401067 16.51712 28.59008L990.969173 379.869867z"
    p-id="12084"></path>
  <path
    d="M423.471787 875.352747l177.053013 0c23.534933 0 43.9808-16.745813 48.5888-39.837013 18.612907-93.02016 28.043947-188.299947 28.043947-283.200853L677.157547 512c0.003413-27.316907-22.227627-49.547947-49.544533-49.547947l-231.226027 0c-27.316907 0-49.547947 22.23104-49.547947 49.547947l0 40.31488c0 94.900907 9.43104 190.184107 28.043947 283.200853C379.490987 858.606933 399.919787 875.352747 423.471787 875.352747zM616.727893 829.044053c-1.536 7.697067-8.35584 13.277867-16.203093 13.277867l-177.053013 0c-7.84384 0-14.667093-5.5808-16.203093-13.277867-13.2608-66.297173-21.620053-133.782187-25.25184-201.43104l259.96288 0C638.347947 695.261867 629.992107 762.729813 616.727893 829.044053zM396.386987 495.48288l231.226027 0c9.099947 0 16.51712 7.417173 16.51712 16.51712l0 40.31488c0 14.073173-0.628053 28.177067-1.041067 42.263893l-262.178133 0c-0.413013-14.086827-1.041067-28.177067-1.041067-42.263893L379.869867 512l0 0C379.869867 502.900053 387.28704 495.48288 396.386987 495.48288z"
    p-id="12085"></path>
  <path
    d="M478.96576 809.28768l66.065067 0c18.21696 0 33.030827-14.813867 33.030827-33.030827l0-82.582187c0.003413-18.213547-14.810453-33.030827-33.030827-33.030827l-66.065067 0c-18.21696 0-33.030827 14.813867-33.030827 33.030827l0 82.582187C445.934933 794.473813 460.7488 809.28768 478.96576 809.28768zM545.03424 776.256853l-66.065067 0 0-16.51712 66.065067 0L545.03424 776.256853zM478.96576 693.67808l66.065067 0 0.017067 33.030827-66.082133 0L478.96576 693.67808z"
    p-id="12086"></path>
  <path d="M412.904107 528.51712l66.065067 0 0 33.030827-66.065067 0 0-33.030827Z" p-id="12087"></path>
  <path d="M545.030827 528.51712l66.065067 0 0 33.030827-66.065067 0 0-33.030827Z" p-id="12088"></path>
</svg>
