<?xml version="1.0" standalone="no"?><!DOCTYPE svg PUBLIC "-//W3C//DTD SVG 1.1//EN"
  "http://www.w3.org/Graphics/SVG/1.1/DTD/svg11.dtd">
<svg t="1571040592486" class="icon" viewBox="0 0 1024 1024" version="1.1" xmlns="http://www.w3.org/2000/svg"
     p-id="10458" width="16" height="16">
  <defs>
    <style type="text/css"></style>
  </defs>
  <path
    d="M989.866667 1006.933333h-170.666667c-10.24 0-17.066667-6.826667-17.066667-17.066666v-17.066667h-580.266666v17.066667c0 10.24-6.826667 17.066667-17.066667 17.066666H34.133333c-10.24 0-17.066667-6.826667-17.066666-17.066666V34.133333C17.066667 23.893333 23.893333 17.066667 34.133333 17.066667h955.733334c10.24 0 17.066667 6.826667 17.066666 17.066666v955.733334c0 10.24-6.826667 17.066667-17.066666 17.066666z m-153.6-34.133333h136.533333v-921.6h-921.6v921.6h136.533333V955.733333c0-10.24 6.826667-17.066667 17.066667-17.066666h614.4c10.24 0 17.066667 6.826667 17.066667 17.066666v17.066667z"
    fill="" p-id="10459"></path>
  <path
    d="M819.2 972.8H204.8c-10.24 0-17.066667-6.826667-17.066667-17.066667V238.933333c0-10.24 6.826667-17.066667 17.066667-17.066666h614.4c10.24 0 17.066667 6.826667 17.066667 17.066666v716.8c0 10.24-6.826667 17.066667-17.066667 17.066667z m-597.333333-34.133333h580.266666v-682.666667h-580.266666v682.666667z"
    fill="" p-id="10460"></path>
  <path
    d="M512 972.8c-10.24 0-17.066667-6.826667-17.066667-17.066667V238.933333c0-10.24 6.826667-17.066667 17.066667-17.066666s17.066667 6.826667 17.066667 17.066666v716.8c0 10.24-6.826667 17.066667-17.066667 17.066667zM409.6 187.733333c-3.413333 0-10.24 0-13.653333-3.413333l-20.48-23.893333-20.48 20.48c-6.826667 6.826667-17.066667 6.826667-23.893334 0s-6.826667-17.066667 0-23.893334l34.133334-34.133333c6.826667-6.826667 17.066667-6.826667 23.893333 0l34.133333 34.133333c6.826667 6.826667 6.826667 17.066667 0 23.893334-3.413333 6.826667-10.24 6.826667-13.653333 6.826666zM614.4 187.733333c-3.413333 0-10.24 0-13.653333-3.413333l-34.133334-34.133333c-6.826667-6.826667-6.826667-17.066667 0-23.893334s17.066667-6.826667 23.893334 0l23.893333 20.48 20.48-20.48c6.826667-6.826667 17.066667-6.826667 23.893333 0s6.826667 17.066667 0 23.893334l-34.133333 34.133333c0 3.413333-6.826667 3.413333-10.24 3.413333z"
    fill="" p-id="10461"></path>
  <path
    d="M887.466667 477.866667m-17.066667 0a17.066667 17.066667 0 1 0 34.133333 0 17.066667 17.066667 0 1 0-34.133333 0Z"
    fill="" p-id="10462"></path>
  <path
    d="M887.466667 546.133333m-17.066667 0a17.066667 17.066667 0 1 0 34.133333 0 17.066667 17.066667 0 1 0-34.133333 0Z"
    fill="" p-id="10463"></path>
</svg>
