<?xml version="1.0" standalone="no"?><!DOCTYPE svg PUBLIC "-//W3C//DTD SVG 1.1//EN"
  "http://www.w3.org/Graphics/SVG/1.1/DTD/svg11.dtd">
<svg t="1571040322531" class="icon" viewBox="0 0 1024 1024" version="1.1" xmlns="http://www.w3.org/2000/svg" p-id="7802"
     width="16" height="16">
  <defs>
    <style type="text/css"></style>
  </defs>
  <path
    d="M362.680541 715.399341c-81.912389-37.09522-139.507037-103.905012-148.188898-182.617699A74.65973 74.65973 0 0 1 149.367028 458.719191V426.722164a42.662703 42.662703 0 0 1 42.662703-42.662703h42.662702V149.414597a106.656756 106.656756 0 0 1 106.656757-106.656757h110.283086a64.015385 64.015385 0 0 1 120.735448 0H682.65081a106.656756 106.656756 0 0 1 106.656757 106.656757v234.644864h42.662702a42.662703 42.662703 0 0 1 42.662703 42.662703v31.997027a74.65973 74.65973 0 0 1-65.124615 74.062451c-8.68186 78.712686-66.276508 145.522479-148.188898 182.617699v161.051702c60.538375 10.153723 106.656756 62.799498 106.656757 126.217606a21.331351 21.331351 0 0 1-21.331352 21.331351H277.355136a21.331351 21.331351 0 0 1-21.331352-21.331351 128.03077 128.03077 0 0 1 106.656757-126.217606v-161.051702z m270.332215-34.236819c72.61192-29.394602 123.892488-84.3015 133.38494-147.783602H257.602304c9.492451 63.482101 60.77302 118.389 133.38494 147.783602l0.959911 0.362633C428.594416 696.243787 469.550611 704.029731 512 704.029731s83.405584-7.807275 120.052845-22.504576l0.959911-0.362633zM639.988108 917.343244H384.011892a85.368068 85.368068 0 0 0-82.637655 63.994053h421.251526A85.368068 85.368068 0 0 0 639.988108 917.343244zM277.355136 170.745948v213.313513h469.289728V170.745948H277.355136z m522.618106 319.97027a31.997027 31.997027 0 0 0 31.997027-31.997027V426.722164H192.029731v31.997027a31.997027 31.997027 0 0 0 31.997027 31.997027h575.946484zM341.34919 85.420543a64.015385 64.015385 0 0 0-60.367725 42.662703h462.03707A64.015385 64.015385 0 0 0 682.65081 85.420543H341.34919z m170.65081 661.27189c-36.9459 0-72.953221-5.268844-106.656756-15.358573V874.680541h213.313512v-143.346681c-33.703535 10.089729-69.710856 15.358573-106.656756 15.358573z"
    fill="#000000" p-id="7803"></path>
</svg>
