<?xml version="1.0" standalone="no"?><!DOCTYPE svg PUBLIC "-//W3C//DTD SVG 1.1//EN"
  "http://www.w3.org/Graphics/SVG/1.1/DTD/svg11.dtd">
<svg t="1571041246022" class="icon" viewBox="0 0 1024 1024" version="1.1" xmlns="http://www.w3.org/2000/svg"
     p-id="14254" width="16" height="16">
  <defs>
    <style type="text/css"></style>
  </defs>
  <path
    d="M554.666667 853.333333h-85.333334v42.666667a21.333333 21.333333 0 0 1-6.250666 15.082667L426.666667 947.498667V1002.666667a21.333333 21.333333 0 0 1-21.333334 21.333333h-85.333333a21.333333 21.333333 0 0 1-21.333333-21.333333v-55.168l-36.416-36.416A21.333333 21.333333 0 0 1 256 896v-42.666667a106.666667 106.666667 0 0 1-106.666667-106.666666V106.666667a106.666667 106.666667 0 0 1 106.666667-106.666667h512a106.666667 106.666667 0 0 1 106.666667 106.666667v640a106.666667 106.666667 0 0 1-106.666667 106.666666v42.666667a21.333333 21.333333 0 0 1-6.250667 15.082667L725.333333 947.498667V1002.666667a21.333333 21.333333 0 0 1-21.333333 21.333333h-85.333333a21.333333 21.333333 0 0 1-21.333334-21.333333v-55.168l-36.416-36.416A21.333333 21.333333 0 0 1 554.666667 896v-42.666667z m-298.666667-42.666666h512a64 64 0 0 0 64-64V106.666667a64 64 0 0 0-64-64H256a64 64 0 0 0-64 64v640a64 64 0 0 0 64 64z m484.416-48.917334a21.333333 21.333333 0 0 1-30.165333-30.165333l42.666666-42.666667a21.333333 21.333333 0 0 1 30.165334 30.165334l-42.666667 42.666666z m-128 0a21.333333 21.333333 0 0 1-30.165333-30.165333l170.666666-170.666667a21.333333 21.333333 0 0 1 30.165334 30.165334l-170.666667 170.666666zM384 981.333333v-42.666666a21.333333 21.333333 0 0 1 6.250667-15.082667L426.666667 887.168V853.333333h-128v33.834667l36.416 36.416A21.333333 21.333333 0 0 1 341.333333 938.666667v42.666666h42.666667z m298.666667 0v-42.666666a21.333333 21.333333 0 0 1 6.250666-15.082667L725.333333 887.168V853.333333h-128v33.834667l36.416 36.416A21.333333 21.333333 0 0 1 640 938.666667v42.666666h42.666667z m-170.666667-512a170.666667 170.666667 0 1 1 0-341.333333 170.666667 170.666667 0 0 1 0 341.333333z m0-42.666666a128 128 0 1 0 0-256 128 128 0 0 0 0 256z m27.584-185.749334a21.333333 21.333333 0 0 1 30.165333 30.165334l-42.666666 42.666666a21.333333 21.333333 0 0 1-30.165334-30.165333l42.666667-42.666667z"
    fill="#000000" p-id="14255"></path>
</svg>
