<?xml version="1.0" standalone="no"?><!DOCTYPE svg PUBLIC "-//W3C//DTD SVG 1.1//EN"
  "http://www.w3.org/Graphics/SVG/1.1/DTD/svg11.dtd">
<svg t="1571849483653" class="icon" viewBox="0 0 1024 1024" version="1.1" xmlns="http://www.w3.org/2000/svg" p-id="3685"
     data-spm-anchor-id="a313x.7781069.0.i3" width="50" height="50">
  <defs>
    <style type="text/css"></style>
  </defs>
  <path
    d="M509.866667 32C245.333333 32 32 247.466667 32 512s213.333333 480 477.866667 480S987.733333 776.533333 987.733333 512 774.4 32 509.866667 32z m0 896C281.6 928 96 742.4 96 512S281.6 96 509.866667 96 923.733333 281.6 923.733333 512s-185.6 416-413.866666 416z"
    fill="#2c2c2c" p-id="3686"></path>
  <path
    d="M469.333333 296.533333c-12.8-12.8-32-12.8-44.8 0s-12.8 32 0 44.8l168.533334 168.533334-168.533334 168.533333c-12.8 12.8-12.8 32 0 44.8 6.4 6.4 14.933333 8.533333 23.466667 8.533333s17.066667-2.133333 23.466667-8.533333l192-192c6.4-6.4 8.533333-14.933333 8.533333-23.466667s-4.266667-17.066667-8.533333-23.466666L469.333333 296.533333z"
    fill="#2c2c2c" p-id="3687"></path>
</svg>
