<?xml version="1.0" encoding="UTF-8"?>
<svg xmlns="http://www.w3.org/2000/svg" xmlns:xlink="http://www.w3.org/1999/xlink" width="40pt" height="40pt" viewBox="0 0 40 40" version="1.1">
<defs>
<filter id="alpha" filterUnits="objectBoundingBox" x="0%" y="0%" width="100%" height="100%">
  <feColorMatrix type="matrix" in="SourceGraphic" values="0 0 0 0 1 0 0 0 0 1 0 0 0 0 1 0 0 0 1 0"/>
</filter>
<mask id="mask0">
  <g filter="url(#alpha)">
<rect x="0" y="0" width="40" height="40" style="fill:rgb(0%,0%,0%);fill-opacity:0.741176;stroke:none;"/>
  </g>
</mask>
<clipPath id="clip1">
  <rect width="40" height="40"/>
</clipPath>
<g id="surface77506" clip-path="url(#clip1)">
<path style=" stroke:none;fill-rule:nonzero;fill:rgb(46.666667%,79.607843%,82.352941%);fill-opacity:1;" d="M 27.25 22.453125 C 25.074219 22.453125 23.308594 24.214844 23.308594 26.390625 C 23.308594 28.566406 25.074219 30.328125 27.25 30.328125 C 29.425781 30.328125 31.1875 28.566406 31.1875 26.390625 C 31.1875 24.214844 29.425781 22.453125 27.25 22.453125 Z M 27.25 22.453125 "/>
</g>
</defs>
<g id="surface77501">
<path style=" stroke:none;fill-rule:nonzero;fill:rgb(6.27451%,55.686275%,91.372549%);fill-opacity:1;" d="M 34.886719 22.683594 C 35.339844 21.820312 35.601562 20.84375 35.601562 19.800781 C 35.601562 17.152344 33.9375 14.898438 31.597656 14.007812 C 31.597656 14.007812 31.601562 14.003906 31.601562 14 C 31.601562 9.359375 27.839844 5.601562 23.199219 5.601562 C 19.285156 5.601562 16.007812 8.28125 15.074219 11.902344 C 14.484375 11.707031 13.855469 11.601562 13.199219 11.601562 C 10.125 11.601562 7.589844 13.917969 7.242188 16.902344 C 5.164062 17.339844 3.601562 19.1875 3.601562 21.398438 C 3.601562 23.941406 5.660156 26 8.199219 26 C 8.269531 26 8.339844 25.996094 8.410156 25.992188 C 8.410156 26.0625 8.398438 26.128906 8.398438 26.199219 C 8.398438 30.730469 12.070312 34.398438 16.601562 34.398438 C 19.175781 34.398438 21.46875 33.210938 22.972656 31.355469 C 23.84375 32.246094 25.054688 32.800781 26.398438 32.800781 C 28.261719 32.800781 29.871094 31.738281 30.667969 30.191406 C 31.085938 30.328125 31.535156 30.398438 32 30.398438 C 34.429688 30.398438 36.398438 28.429688 36.398438 26 C 36.398438 24.675781 35.8125 23.492188 34.886719 22.683594 Z M 34.886719 22.683594 "/>
<path style=" stroke:none;fill-rule:nonzero;fill:rgb(99.215686%,98.823529%,93.72549%);fill-opacity:1;" d="M 31.949219 20.601562 C 31.949219 20.601562 33.40625 20.601562 34.398438 20.601562 C 35.394531 20.601562 36.199219 19.792969 36.199219 18.800781 C 36.199219 17.867188 35.488281 17.109375 34.578125 17.019531 C 34.585938 16.945312 34.601562 16.875 34.601562 16.800781 C 34.601562 15.804688 33.792969 15 32.800781 15 C 32.226562 15 31.71875 15.273438 31.390625 15.695312 C 31.332031 14.640625 30.46875 13.800781 29.398438 13.800781 C 28.296875 13.800781 27.398438 14.695312 27.398438 15.800781 C 27.398438 15.976562 27.429688 16.148438 27.476562 16.3125 C 27.21875 16.003906 26.835938 15.800781 26.398438 15.800781 C 25.6875 15.800781 25.105469 16.335938 25.019531 17.023438 C 24.945312 17.011719 24.875 17 24.800781 17 C 23.804688 17 23 17.804688 23 18.800781 C 23 19.792969 23.804688 20.601562 24.800781 20.601562 C 25.792969 20.601562 28.601562 20.601562 28.601562 20.601562 L 30.75 20.601562 L 30.75 20.800781 L 31.949219 20.800781 Z M 31.949219 20.601562 "/>
<path style=" stroke:none;fill-rule:nonzero;fill:rgb(27.843137%,16.862745%,16.078431%);fill-opacity:1;" d="M 29.398438 13.601562 C 28.1875 13.601562 27.199219 14.585938 27.199219 15.800781 C 27.199219 15.804688 27.199219 15.8125 27.199219 15.820312 C 26.960938 15.675781 26.683594 15.601562 26.398438 15.601562 C 25.667969 15.601562 25.035156 16.105469 24.855469 16.800781 C 24.839844 16.800781 24.820312 16.800781 24.800781 16.800781 C 23.695312 16.800781 22.800781 17.695312 22.800781 18.800781 C 22.800781 19.902344 23.695312 20.800781 24.800781 20.800781 L 30.75 20.800781 C 30.859375 20.800781 30.949219 20.710938 30.949219 20.601562 C 30.949219 20.488281 30.859375 20.398438 30.75 20.398438 L 24.800781 20.398438 C 23.917969 20.398438 23.199219 19.683594 23.199219 18.800781 C 23.199219 17.917969 23.917969 17.199219 24.800781 17.199219 C 24.847656 17.199219 24.890625 17.207031 24.9375 17.210938 L 24.992188 17.21875 C 25.003906 17.222656 25.011719 17.222656 25.019531 17.222656 C 25.117188 17.222656 25.203125 17.148438 25.214844 17.046875 C 25.292969 16.449219 25.800781 16 26.398438 16 C 26.753906 16 27.089844 16.160156 27.320312 16.441406 C 27.359375 16.488281 27.417969 16.511719 27.476562 16.511719 C 27.507812 16.511719 27.539062 16.503906 27.566406 16.492188 C 27.648438 16.449219 27.691406 16.351562 27.667969 16.261719 C 27.621094 16.085938 27.601562 15.941406 27.601562 15.800781 C 27.601562 14.808594 28.40625 14 29.398438 14 C 30.351562 14 31.140625 14.75 31.191406 15.707031 C 31.195312 15.789062 31.25 15.859375 31.328125 15.886719 C 31.347656 15.890625 31.371094 15.894531 31.390625 15.894531 C 31.449219 15.894531 31.507812 15.867188 31.546875 15.816406 C 31.855469 15.425781 32.3125 15.199219 32.800781 15.199219 C 33.683594 15.199219 34.398438 15.917969 34.398438 16.800781 C 34.398438 16.847656 34.394531 16.890625 34.386719 16.9375 L 34.378906 16.992188 C 34.375 17.046875 34.386719 17.101562 34.421875 17.144531 C 34.457031 17.183594 34.503906 17.210938 34.558594 17.21875 C 35.378906 17.296875 36 17.980469 36 18.800781 C 36 19.683594 35.28125 20.398438 34.398438 20.398438 L 31.949219 20.398438 C 31.839844 20.398438 31.75 20.488281 31.75 20.601562 C 31.75 20.710938 31.839844 20.800781 31.949219 20.800781 L 34.398438 20.800781 C 35.503906 20.800781 36.398438 19.902344 36.398438 18.800781 C 36.398438 17.839844 35.722656 17.035156 34.796875 16.847656 C 34.800781 16.832031 34.800781 16.816406 34.800781 16.800781 C 34.800781 15.695312 33.902344 14.800781 32.800781 14.800781 C 32.328125 14.800781 31.882812 14.964844 31.527344 15.265625 C 31.289062 14.304688 30.421875 13.601562 29.398438 13.601562 Z M 29.398438 13.601562 "/>
<path style=" stroke:none;fill-rule:nonzero;fill:rgb(27.843137%,16.862745%,16.078431%);fill-opacity:1;" d="M 28.800781 16.398438 C 28.238281 16.398438 27.757812 16.800781 27.636719 17.335938 C 27.488281 17.246094 27.320312 17.199219 27.148438 17.199219 C 26.667969 17.199219 26.269531 17.558594 26.207031 18.027344 C 26.128906 18.007812 26.050781 18 25.976562 18 C 25.363281 18 24.851562 18.480469 24.808594 19.09375 C 24.804688 19.148438 24.84375 19.195312 24.902344 19.199219 C 24.902344 19.199219 24.90625 19.199219 24.90625 19.199219 C 24.960938 19.199219 25.003906 19.160156 25.007812 19.105469 C 25.042969 18.597656 25.46875 18.199219 25.976562 18.199219 C 26.066406 18.199219 26.164062 18.21875 26.269531 18.25 C 26.277344 18.253906 26.289062 18.253906 26.296875 18.253906 C 26.320312 18.253906 26.339844 18.246094 26.359375 18.234375 C 26.386719 18.214844 26.398438 18.183594 26.398438 18.148438 C 26.398438 17.738281 26.738281 17.398438 27.148438 17.398438 C 27.328125 17.398438 27.503906 17.46875 27.640625 17.589844 C 27.660156 17.605469 27.683594 17.613281 27.707031 17.613281 C 27.722656 17.613281 27.734375 17.613281 27.746094 17.605469 C 27.78125 17.59375 27.804688 17.558594 27.808594 17.523438 C 27.847656 17.003906 28.285156 16.601562 28.800781 16.601562 C 28.882812 16.601562 28.96875 16.613281 29.074219 16.644531 C 29.082031 16.644531 29.089844 16.648438 29.101562 16.648438 C 29.144531 16.648438 29.183594 16.617188 29.195312 16.574219 C 29.210938 16.519531 29.179688 16.464844 29.128906 16.449219 C 29.007812 16.414062 28.902344 16.398438 28.800781 16.398438 Z M 34.351562 17 C 33.824219 17 33.351562 17.359375 33.203125 17.871094 C 33.1875 17.925781 33.21875 17.980469 33.273438 17.996094 C 33.28125 18 33.292969 18 33.300781 18 C 33.34375 18 33.382812 17.972656 33.394531 17.925781 C 33.519531 17.5 33.910156 17.199219 34.351562 17.199219 C 34.398438 17.199219 34.445312 17.207031 34.488281 17.210938 C 34.496094 17.210938 34.5 17.210938 34.503906 17.210938 C 34.550781 17.210938 34.59375 17.175781 34.601562 17.125 C 34.609375 17.070312 34.570312 17.019531 34.515625 17.011719 C 34.464844 17.007812 34.410156 17 34.351562 17 Z M 34.351562 17 "/>
<path style=" stroke:none;fill-rule:nonzero;fill:rgb(100%,100%,100%);fill-opacity:1;" d="M 6.160156 20.398438 L 2.199219 20.398438 C 2.089844 20.398438 2 20.308594 2 20.199219 C 2 20.089844 2.089844 20 2.199219 20 L 6.160156 20 C 6.273438 20 6.363281 20.089844 6.363281 20.199219 C 6.363281 20.308594 6.273438 20.398438 6.160156 20.398438 Z M 7.398438 20.398438 L 7 20.398438 C 6.890625 20.398438 6.800781 20.308594 6.800781 20.199219 C 6.800781 20.089844 6.890625 20 7 20 L 7.398438 20 C 7.511719 20 7.601562 20.089844 7.601562 20.199219 C 7.601562 20.308594 7.511719 20.398438 7.398438 20.398438 Z M 9.394531 21.199219 L 5.800781 21.199219 C 5.691406 21.199219 5.601562 21.109375 5.601562 21 C 5.601562 20.890625 5.691406 20.800781 5.800781 20.800781 L 9.394531 20.800781 C 9.507812 20.800781 9.597656 20.890625 9.597656 21 C 9.597656 21.109375 9.507812 21.199219 9.394531 21.199219 Z M 5 21.199219 L 4.601562 21.199219 C 4.488281 21.199219 4.398438 21.109375 4.398438 21 C 4.398438 20.890625 4.488281 20.800781 4.601562 20.800781 L 5 20.800781 C 5.109375 20.800781 5.199219 20.890625 5.199219 21 C 5.199219 21.109375 5.109375 21.199219 5 21.199219 Z M 3.800781 21.199219 L 3 21.199219 C 2.890625 21.199219 2.800781 21.109375 2.800781 21 C 2.800781 20.890625 2.890625 20.800781 3 20.800781 L 3.800781 20.800781 C 3.910156 20.800781 4 20.890625 4 21 C 4 21.109375 3.910156 21.199219 3.800781 21.199219 Z M 6.199219 22 L 5.398438 22 C 5.289062 22 5.199219 21.910156 5.199219 21.800781 C 5.199219 21.691406 5.289062 21.601562 5.398438 21.601562 L 6.199219 21.601562 C 6.308594 21.601562 6.398438 21.691406 6.398438 21.800781 C 6.398438 21.910156 6.308594 22 6.199219 22 Z M 7.398438 18.398438 C 7.328125 18.398438 7.070312 18.398438 7 18.398438 C 6.890625 18.398438 6.800781 18.488281 6.800781 18.601562 C 6.800781 18.710938 6.890625 18.800781 7 18.800781 C 7.070312 18.800781 7.328125 18.800781 7.398438 18.800781 C 7.511719 18.800781 7.601562 18.710938 7.601562 18.601562 C 7.601562 18.488281 7.511719 18.398438 7.398438 18.398438 Z M 7.398438 19.199219 C 7.328125 19.199219 5.472656 19.199219 5.398438 19.199219 C 5.289062 19.199219 5.199219 19.289062 5.199219 19.398438 C 5.199219 19.511719 5.289062 19.601562 5.398438 19.601562 C 5.472656 19.601562 7.328125 19.601562 7.398438 19.601562 C 7.511719 19.601562 7.601562 19.511719 7.601562 19.398438 C 7.601562 19.289062 7.511719 19.199219 7.398438 19.199219 Z M 9.398438 20 C 9.328125 20 8.269531 20 8.199219 20 C 8.089844 20 8 20.089844 8 20.199219 C 8 20.308594 8.089844 20.398438 8.199219 20.398438 C 8.269531 20.398438 9.328125 20.398438 9.398438 20.398438 C 9.511719 20.398438 9.601562 20.308594 9.601562 20.199219 C 9.601562 20.089844 9.511719 20 9.398438 20 Z M 29 9.601562 L 25 9.601562 C 24.890625 9.601562 24.800781 9.511719 24.800781 9.398438 C 24.800781 9.289062 24.890625 9.199219 25 9.199219 L 29 9.199219 C 29.109375 9.199219 29.199219 9.289062 29.199219 9.398438 C 29.199219 9.511719 29.109375 9.601562 29 9.601562 Z M 30.601562 9.601562 L 29.800781 9.601562 C 29.691406 9.601562 29.601562 9.511719 29.601562 9.398438 C 29.601562 9.289062 29.691406 9.199219 29.800781 9.199219 L 30.601562 9.199219 C 30.710938 9.199219 30.800781 9.289062 30.800781 9.398438 C 30.800781 9.511719 30.710938 9.601562 30.601562 9.601562 Z M 32.601562 10.398438 L 28.601562 10.398438 C 28.488281 10.398438 28.398438 10.308594 28.398438 10.199219 C 28.398438 10.089844 28.488281 10 28.601562 10 L 32.601562 10 C 32.710938 10 32.800781 10.089844 32.800781 10.199219 C 32.800781 10.308594 32.710938 10.398438 32.601562 10.398438 Z M 27.800781 10.398438 L 27.398438 10.398438 C 27.289062 10.398438 27.199219 10.308594 27.199219 10.199219 C 27.199219 10.089844 27.289062 10 27.398438 10 L 27.800781 10 C 27.910156 10 28 10.089844 28 10.199219 C 28 10.308594 27.910156 10.398438 27.800781 10.398438 Z M 26.550781 10.398438 L 25.800781 10.398438 C 25.691406 10.398438 25.601562 10.308594 25.601562 10.199219 C 25.601562 10.089844 25.691406 10 25.800781 10 L 26.550781 10 C 26.660156 10 26.75 10.089844 26.75 10.199219 C 26.75 10.308594 26.660156 10.398438 26.550781 10.398438 Z M 30.199219 8.800781 L 28.199219 8.800781 C 28.089844 8.800781 28 8.710938 28 8.601562 C 28 8.488281 28.089844 8.398438 28.199219 8.398438 L 30.199219 8.398438 C 30.308594 8.398438 30.398438 8.488281 30.398438 8.601562 C 30.398438 8.710938 30.3125 8.800781 30.199219 8.800781 Z M 29 11.199219 L 28.199219 11.199219 C 28.089844 11.199219 28 11.109375 28 11 C 28 10.890625 28.089844 10.800781 28.199219 10.800781 L 29 10.800781 C 29.109375 10.800781 29.199219 10.890625 29.199219 11 C 29.199219 11.109375 29.109375 11.199219 29 11.199219 Z M 29 11.199219 "/>
<path style=" stroke:none;fill-rule:nonzero;fill:rgb(99.607843%,99.215686%,93.72549%);fill-opacity:1;" d="M 14.800781 28.519531 C 13.191406 28.519531 11.878906 27.210938 11.878906 25.601562 L 11.878906 14.398438 C 11.878906 12.789062 13.191406 11.480469 14.800781 11.480469 L 26 11.480469 C 27.609375 11.480469 28.921875 12.789062 28.921875 14.398438 L 28.921875 25.601562 C 28.921875 27.210938 27.609375 28.519531 26 28.519531 Z M 14.800781 28.519531 "/>
<path style=" stroke:none;fill-rule:nonzero;fill:rgb(27.843137%,16.862745%,16.078431%);fill-opacity:1;" d="M 26 11.761719 C 27.457031 11.761719 28.640625 12.945312 28.640625 14.398438 L 28.640625 25.601562 C 28.640625 27.054688 27.457031 28.238281 26 28.238281 L 14.800781 28.238281 C 13.34375 28.238281 12.160156 27.054688 12.160156 25.601562 L 12.160156 14.398438 C 12.160156 12.945312 13.34375 11.761719 14.800781 11.761719 L 26 11.761719 M 26 11.199219 L 14.800781 11.199219 C 13.03125 11.199219 11.601562 12.632812 11.601562 14.398438 L 11.601562 25.601562 C 11.601562 27.367188 13.03125 28.800781 14.800781 28.800781 L 26 28.800781 C 27.765625 28.800781 29.199219 27.367188 29.199219 25.601562 L 29.199219 14.398438 C 29.199219 12.632812 27.765625 11.199219 26 11.199219 Z M 26 11.199219 "/>
<path style=" stroke:none;fill-rule:nonzero;fill:rgb(27.843137%,16.862745%,16.078431%);fill-opacity:1;" d="M 26.773438 14.375 L 25.226562 14.375 C 25.113281 14.375 25.023438 14.285156 25.023438 14.175781 C 25.023438 14.066406 25.113281 13.976562 25.226562 13.976562 L 26.773438 13.976562 C 26.886719 13.976562 26.976562 14.066406 26.976562 14.175781 C 26.976562 14.285156 26.886719 14.375 26.773438 14.375 Z M 26.773438 14.375 "/>
<path style=" stroke:none;fill-rule:nonzero;fill:rgb(27.843137%,16.862745%,16.078431%);fill-opacity:1;" d="M 14.800781 26.375 L 12.023438 26.375 C 11.914062 26.375 11.824219 26.285156 11.824219 26.175781 C 11.824219 26.066406 11.914062 25.976562 12.023438 25.976562 L 14.800781 25.976562 C 14.910156 25.976562 15 26.066406 15 26.175781 C 15 26.285156 14.910156 26.375 14.800781 26.375 Z M 14.800781 26.375 "/>
<path style=" stroke:none;fill-rule:nonzero;fill:rgb(27.843137%,16.862745%,16.078431%);fill-opacity:1;" d="M 28.800781 26.375 L 16.027344 26.375 C 15.917969 26.375 15.828125 26.285156 15.828125 26.175781 C 15.828125 26.066406 15.917969 25.976562 16.027344 25.976562 L 28.800781 25.976562 C 28.910156 25.976562 29 26.066406 29 26.175781 C 29 26.285156 28.910156 26.375 28.800781 26.375 Z M 28.800781 26.375 "/>
<path style=" stroke:none;fill-rule:nonzero;fill:rgb(27.843137%,16.862745%,16.078431%);fill-opacity:1;" d="M 23.980469 14.375 L 12.003906 14.375 C 11.894531 14.375 11.804688 14.285156 11.804688 14.175781 C 11.804688 14.066406 11.894531 13.976562 12.003906 13.976562 L 23.980469 13.976562 C 24.089844 13.976562 24.179688 14.066406 24.179688 14.175781 C 24.179688 14.285156 24.089844 14.375 23.980469 14.375 Z M 23.980469 14.375 "/>
<path style=" stroke:none;fill-rule:nonzero;fill:rgb(27.843137%,16.862745%,16.078431%);fill-opacity:1;" d="M 28.773438 14.375 L 27.976562 14.375 C 27.863281 14.375 27.773438 14.285156 27.773438 14.175781 C 27.773438 14.066406 27.863281 13.976562 27.976562 13.976562 L 28.773438 13.976562 C 28.886719 13.976562 28.976562 14.066406 28.976562 14.175781 C 28.976562 14.285156 28.886719 14.375 28.773438 14.375 Z M 28.773438 14.375 "/>
<path style=" stroke:none;fill-rule:nonzero;fill:rgb(93.333333%,24.313725%,32.941176%);fill-opacity:1;" d="M 14.925781 12.425781 C 14.644531 12.425781 14.417969 12.652344 14.417969 12.929688 C 14.417969 13.210938 14.644531 13.4375 14.925781 13.4375 C 15.203125 13.4375 15.429688 13.210938 15.429688 12.929688 C 15.429688 12.652344 15.203125 12.425781 14.925781 12.425781 Z M 14.925781 12.425781 "/>
<path style=" stroke:none;fill-rule:nonzero;fill:rgb(27.843137%,16.862745%,16.078431%);fill-opacity:1;" d="M 14.925781 13.558594 C 14.582031 13.558594 14.300781 13.277344 14.300781 12.929688 C 14.300781 12.585938 14.582031 12.304688 14.925781 12.304688 C 15.269531 12.304688 15.550781 12.585938 15.550781 12.929688 C 15.550781 13.277344 15.269531 13.558594 14.925781 13.558594 Z M 14.925781 12.546875 C 14.710938 12.546875 14.539062 12.71875 14.539062 12.929688 C 14.539062 13.144531 14.710938 13.316406 14.925781 13.316406 C 15.136719 13.316406 15.3125 13.144531 15.3125 12.929688 C 15.3125 12.71875 15.136719 12.546875 14.925781 12.546875 Z M 14.925781 12.546875 "/>
<path style=" stroke:none;fill-rule:nonzero;fill:rgb(94.509804%,73.72549%,9.803922%);fill-opacity:1;" d="M 16.695312 12.425781 C 16.417969 12.425781 16.191406 12.652344 16.191406 12.929688 C 16.191406 13.210938 16.417969 13.4375 16.695312 13.4375 C 16.976562 13.4375 17.203125 13.210938 17.203125 12.929688 C 17.203125 12.652344 16.976562 12.425781 16.695312 12.425781 Z M 16.695312 12.425781 "/>
<path style=" stroke:none;fill-rule:nonzero;fill:rgb(27.843137%,16.862745%,16.078431%);fill-opacity:1;" d="M 16.695312 13.558594 C 16.351562 13.558594 16.070312 13.277344 16.070312 12.929688 C 16.070312 12.585938 16.351562 12.304688 16.695312 12.304688 C 17.039062 12.304688 17.320312 12.585938 17.320312 12.929688 C 17.320312 13.277344 17.039062 13.558594 16.695312 13.558594 Z M 16.695312 12.546875 C 16.484375 12.546875 16.308594 12.71875 16.308594 12.929688 C 16.308594 13.144531 16.484375 13.316406 16.695312 13.316406 C 16.910156 13.316406 17.082031 13.144531 17.082031 12.929688 C 17.082031 12.71875 16.910156 12.546875 16.695312 12.546875 Z M 16.695312 12.546875 "/>
<path style=" stroke:none;fill-rule:nonzero;fill:rgb(53.333333%,68.235294%,27.058824%);fill-opacity:1;" d="M 18.464844 12.425781 C 18.1875 12.425781 17.960938 12.652344 17.960938 12.929688 C 17.960938 13.210938 18.1875 13.4375 18.464844 13.4375 C 18.746094 13.4375 18.972656 13.210938 18.972656 12.929688 C 18.972656 12.652344 18.746094 12.425781 18.464844 12.425781 Z M 18.464844 12.425781 "/>
<path style=" stroke:none;fill-rule:nonzero;fill:rgb(27.843137%,16.862745%,16.078431%);fill-opacity:1;" d="M 18.464844 13.558594 C 18.121094 13.558594 17.839844 13.277344 17.839844 12.929688 C 17.839844 12.585938 18.121094 12.304688 18.464844 12.304688 C 18.8125 12.304688 19.089844 12.585938 19.089844 12.929688 C 19.089844 13.277344 18.8125 13.558594 18.464844 13.558594 Z M 18.464844 12.546875 C 18.253906 12.546875 18.082031 12.71875 18.082031 12.929688 C 18.082031 13.144531 18.253906 13.316406 18.464844 13.316406 C 18.679688 13.316406 18.851562 13.144531 18.851562 12.929688 C 18.851562 12.71875 18.679688 12.546875 18.464844 12.546875 Z M 18.464844 12.546875 "/>
<path style=" stroke:none;fill-rule:nonzero;fill:rgb(99.215686%,98.823529%,93.72549%);fill-opacity:1;" d="M 14.601562 29.800781 C 14.601562 29.800781 15.226562 29.800781 16 29.800781 C 16.773438 29.800781 17.398438 29.171875 17.398438 28.398438 C 17.398438 27.6875 16.867188 27.105469 16.179688 27.019531 C 16.1875 26.945312 16.199219 26.875 16.199219 26.800781 C 16.199219 26.027344 15.574219 25.398438 14.800781 25.398438 C 14.386719 25.398438 14.019531 25.582031 13.765625 25.867188 C 13.609375 25.144531 12.96875 24.601562 12.199219 24.601562 C 11.316406 24.601562 10.601562 25.316406 10.601562 26.199219 C 10.601562 26.277344 10.613281 26.347656 10.621094 26.421875 C 10.453125 26.285156 10.238281 26.199219 10 26.199219 C 9.507812 26.199219 9.101562 26.554688 9.019531 27.023438 C 8.945312 27.011719 8.875 27 8.800781 27 C 8.027344 27 7.398438 27.625 7.398438 28.398438 C 7.398438 29.171875 8.027344 29.800781 8.800781 29.800781 C 9.574219 29.800781 11.800781 29.800781 11.800781 29.800781 L 11.800781 30 L 14.601562 30 Z M 14.601562 29.800781 "/>
<path style=" stroke:none;fill-rule:nonzero;fill:rgb(27.843137%,16.862745%,16.078431%);fill-opacity:1;" d="M 15.300781 28 C 15.246094 28 15.199219 27.957031 15.199219 27.898438 C 15.199219 27.410156 15.597656 27.011719 16.085938 27.011719 C 16.101562 27.015625 16.382812 27.011719 16.585938 27.066406 C 16.636719 27.082031 16.667969 27.136719 16.65625 27.191406 C 16.640625 27.242188 16.585938 27.273438 16.53125 27.261719 C 16.355469 27.210938 16.09375 27.210938 16.085938 27.210938 C 15.707031 27.210938 15.398438 27.519531 15.398438 27.898438 C 15.398438 27.957031 15.355469 28 15.300781 28 Z M 12.601562 29.601562 C 12.488281 29.601562 12.398438 29.691406 12.398438 29.800781 C 12.398438 29.910156 12.488281 30 12.601562 30 C 12.710938 30 12.800781 29.910156 12.800781 29.800781 C 12.800781 29.691406 12.710938 29.601562 12.601562 29.601562 Z M 12.601562 29.601562 "/>
<path style=" stroke:none;fill-rule:nonzero;fill:rgb(27.843137%,16.862745%,16.078431%);fill-opacity:1;" d="M 16 30 L 14.601562 30 C 14.488281 30 14.398438 29.910156 14.398438 29.800781 C 14.398438 29.691406 14.488281 29.601562 14.601562 29.601562 L 16 29.601562 C 16.660156 29.601562 17.199219 29.0625 17.199219 28.398438 C 17.199219 27.800781 16.75 27.292969 16.152344 27.214844 C 16.097656 27.210938 16.050781 27.179688 16.019531 27.136719 C 15.984375 27.09375 15.972656 27.039062 15.980469 26.988281 C 15.988281 26.925781 16 26.863281 16 26.800781 C 16 26.136719 15.460938 25.601562 14.800781 25.601562 C 14.460938 25.601562 14.144531 25.742188 13.914062 26 C 13.863281 26.054688 13.785156 26.078125 13.710938 26.058594 C 13.640625 26.039062 13.585938 25.980469 13.570312 25.90625 C 13.433594 25.265625 12.855469 24.800781 12.199219 24.800781 C 11.429688 24.800781 10.800781 25.429688 10.800781 26.199219 C 10.800781 26.257812 10.808594 26.3125 10.816406 26.367188 C 10.828125 26.449219 10.792969 26.542969 10.71875 26.582031 C 10.648438 26.625 10.5625 26.628906 10.496094 26.578125 C 10.351562 26.460938 10.179688 26.398438 10 26.398438 C 9.613281 26.398438 9.28125 26.675781 9.214844 27.058594 C 9.195312 27.164062 9.097656 27.234375 8.988281 27.21875 C 8.925781 27.210938 8.863281 27.199219 8.800781 27.199219 C 8.136719 27.199219 7.601562 27.738281 7.601562 28.398438 C 7.601562 29.0625 8.136719 29.601562 8.800781 29.601562 L 11.800781 29.601562 C 11.910156 29.601562 12 29.691406 12 29.800781 C 12 29.910156 11.910156 30 11.800781 30 L 8.800781 30 C 7.917969 30 7.199219 29.28125 7.199219 28.398438 C 7.199219 27.519531 7.917969 26.800781 8.800781 26.800781 C 8.824219 26.800781 8.847656 26.800781 8.871094 26.800781 C 9.035156 26.328125 9.484375 26 10 26 C 10.140625 26 10.277344 26.023438 10.40625 26.070312 C 10.46875 25.140625 11.25 24.398438 12.199219 24.398438 C 12.933594 24.398438 13.585938 24.851562 13.859375 25.507812 C 14.132812 25.308594 14.460938 25.199219 14.800781 25.199219 C 15.683594 25.199219 16.398438 25.917969 16.398438 26.800781 C 16.398438 26.820312 16.398438 26.839844 16.398438 26.855469 C 17.09375 27.035156 17.601562 27.667969 17.601562 28.398438 C 17.601562 29.28125 16.882812 30 16 30 Z M 16 30 "/>
<path style=" stroke:none;fill-rule:nonzero;fill:rgb(27.843137%,16.862745%,16.078431%);fill-opacity:1;" d="M 13.800781 29.601562 C 13.738281 29.601562 13.464844 29.601562 13.398438 29.601562 C 13.289062 29.601562 13.199219 29.691406 13.199219 29.800781 C 13.199219 29.910156 13.289062 30 13.398438 30 C 13.464844 30 13.738281 30 13.800781 30 C 13.910156 30 14 29.910156 14 29.800781 C 14 29.691406 13.910156 29.601562 13.800781 29.601562 Z M 13.800781 29.601562 "/>
<path style=" stroke:none;fill-rule:nonzero;fill:rgb(27.843137%,16.862745%,16.078431%);fill-opacity:1;" d="M 27.203125 16.375 L 16.398438 16.375 C 16.289062 16.375 16.199219 16.285156 16.199219 16.175781 C 16.199219 16.066406 16.289062 15.976562 16.398438 15.976562 L 27.203125 15.976562 C 27.3125 15.976562 27.402344 16.066406 27.402344 16.175781 C 27.402344 16.285156 27.3125 16.375 27.203125 16.375 Z M 27.203125 16.375 "/>
<path style=" stroke:none;fill-rule:nonzero;fill:rgb(27.843137%,16.862745%,16.078431%);fill-opacity:1;" d="M 27.203125 18.375 L 16.398438 18.375 C 16.289062 18.375 16.199219 18.285156 16.199219 18.175781 C 16.199219 18.066406 16.289062 17.976562 16.398438 17.976562 L 27.203125 17.976562 C 27.3125 17.976562 27.402344 18.066406 27.402344 18.175781 C 27.402344 18.285156 27.3125 18.375 27.203125 18.375 Z M 27.203125 18.375 "/>
<path style=" stroke:none;fill-rule:nonzero;fill:rgb(27.843137%,16.862745%,16.078431%);fill-opacity:1;" d="M 27.203125 20.375 L 16.398438 20.375 C 16.289062 20.375 16.199219 20.285156 16.199219 20.175781 C 16.199219 20.066406 16.289062 19.976562 16.398438 19.976562 L 27.203125 19.976562 C 27.3125 19.976562 27.402344 20.066406 27.402344 20.175781 C 27.402344 20.285156 27.3125 20.375 27.203125 20.375 Z M 27.203125 20.375 "/>
<path style=" stroke:none;fill-rule:nonzero;fill:rgb(27.843137%,16.862745%,16.078431%);fill-opacity:1;" d="M 27.203125 22.375 L 16.398438 22.375 C 16.289062 22.375 16.199219 22.285156 16.199219 22.175781 C 16.199219 22.066406 16.289062 21.976562 16.398438 21.976562 L 27.203125 21.976562 C 27.3125 21.976562 27.402344 22.066406 27.402344 22.175781 C 27.402344 22.285156 27.3125 22.375 27.203125 22.375 Z M 27.203125 22.375 "/>
<path style=" stroke:none;fill-rule:nonzero;fill:rgb(27.843137%,16.862745%,16.078431%);fill-opacity:1;" d="M 27.203125 24.375 L 16.398438 24.375 C 16.289062 24.375 16.199219 24.285156 16.199219 24.175781 C 16.199219 24.066406 16.289062 23.976562 16.398438 23.976562 L 27.203125 23.976562 C 27.3125 23.976562 27.402344 24.066406 27.402344 24.175781 C 27.402344 24.285156 27.3125 24.375 27.203125 24.375 Z M 27.203125 24.375 "/>
<path style=" stroke:none;fill-rule:nonzero;fill:rgb(27.843137%,16.862745%,16.078431%);fill-opacity:1;" d="M 22.625 31.214844 C 22.574219 31.214844 22.523438 31.195312 22.480469 31.15625 C 22.40625 31.078125 22.40625 30.953125 22.480469 30.875 L 23.597656 29.761719 C 23.675781 29.683594 23.800781 29.683594 23.878906 29.761719 C 23.957031 29.839844 23.957031 29.964844 23.878906 30.042969 L 22.765625 31.15625 C 22.726562 31.195312 22.675781 31.214844 22.625 31.214844 Z M 22.625 31.214844 "/>
<path style=" stroke:none;fill-rule:nonzero;fill:rgb(53.333333%,68.235294%,27.058824%);fill-opacity:1;" d="M 17.875 35.816406 L 17.824219 35.765625 C 17.398438 35.339844 17.398438 34.648438 17.824219 34.226562 L 21.058594 30.988281 C 21.480469 30.566406 22.175781 30.566406 22.597656 30.988281 L 22.648438 31.042969 C 23.074219 31.464844 23.074219 32.15625 22.648438 32.582031 L 19.414062 35.816406 C 18.992188 36.238281 18.296875 36.238281 17.875 35.816406 Z M 17.875 35.816406 "/>
<path style=" stroke:none;fill-rule:nonzero;fill:rgb(27.843137%,16.862745%,16.078431%);fill-opacity:1;" d="M 18.644531 36.335938 C 18.316406 36.335938 17.984375 36.210938 17.734375 35.957031 L 17.683594 35.90625 C 17.179688 35.402344 17.179688 34.585938 17.683594 34.082031 L 20.917969 30.847656 C 21.417969 30.347656 22.238281 30.34375 22.738281 30.847656 L 22.792969 30.902344 C 23.035156 31.144531 23.167969 31.46875 23.167969 31.8125 C 23.167969 32.15625 23.035156 32.480469 22.792969 32.722656 L 19.558594 35.957031 C 19.304688 36.210938 18.976562 36.335938 18.644531 36.335938 Z M 18.015625 35.675781 C 18.363281 36.023438 18.925781 36.019531 19.273438 35.675781 L 22.507812 32.441406 C 22.675781 32.273438 22.765625 32.050781 22.765625 31.8125 C 22.765625 31.574219 22.675781 31.351562 22.507812 31.183594 L 22.457031 31.132812 C 22.109375 30.785156 21.546875 30.785156 21.199219 31.132812 L 17.964844 34.367188 C 17.617188 34.710938 17.617188 35.277344 17.964844 35.621094 Z M 18.015625 35.675781 "/>
<path style=" stroke:none;fill-rule:nonzero;fill:rgb(81.960784%,86.27451%,50.980392%);fill-opacity:1;" d="M 22.503906 31.128906 C 22.136719 30.761719 21.554688 30.738281 21.214844 31.074219 L 21.15625 31.136719 L 21.289062 31.273438 L 22.496094 32.480469 L 22.558594 32.417969 C 22.898438 32.078125 22.875 31.5 22.503906 31.128906 Z M 22.503906 31.128906 "/>
<path style=" stroke:none;fill-rule:nonzero;fill:rgb(27.843137%,16.862745%,16.078431%);fill-opacity:1;" d="M 22.5 32.792969 C 22.460938 32.792969 22.421875 32.777344 22.394531 32.75 L 20.960938 31.316406 C 20.902344 31.257812 20.902344 31.164062 20.960938 31.105469 C 21.019531 31.046875 21.113281 31.046875 21.171875 31.105469 L 22.605469 32.535156 C 22.664062 32.59375 22.664062 32.691406 22.605469 32.75 C 22.578125 32.777344 22.539062 32.792969 22.5 32.792969 Z M 22.5 32.792969 "/>
<use xlink:href="#surface77506" mask="url(#mask0)"/>
<path style=" stroke:none;fill-rule:nonzero;fill:rgb(99.215686%,98.823529%,93.72549%);fill-opacity:1;" d="M 30.738281 22.898438 C 28.804688 20.964844 25.671875 20.964844 23.738281 22.898438 C 21.804688 24.832031 21.804688 27.96875 23.738281 29.902344 C 25.671875 31.835938 28.804688 31.835938 30.738281 29.902344 C 32.675781 27.96875 32.675781 24.832031 30.738281 22.898438 Z M 30.023438 29.1875 C 28.484375 30.722656 25.992188 30.722656 24.453125 29.1875 C 22.914062 27.648438 22.914062 25.152344 24.453125 23.617188 C 25.992188 22.078125 28.484375 22.078125 30.023438 23.617188 C 31.5625 25.152344 31.5625 27.648438 30.023438 29.1875 Z M 30.023438 29.1875 "/>
<path style=" stroke:none;fill-rule:nonzero;fill:rgb(27.843137%,16.862745%,16.078431%);fill-opacity:1;" d="M 27.238281 31.550781 C 25.917969 31.550781 24.601562 31.046875 23.597656 30.042969 C 21.589844 28.035156 21.589844 24.765625 23.597656 22.757812 C 25.605469 20.75 28.875 20.75 30.882812 22.757812 C 32.890625 24.765625 32.890625 28.035156 30.882812 30.042969 C 29.878906 31.046875 28.558594 31.550781 27.238281 31.550781 Z M 27.238281 21.652344 C 26.023438 21.652344 24.804688 22.113281 23.878906 23.042969 C 22.027344 24.894531 22.027344 27.90625 23.878906 29.761719 C 25.730469 31.613281 28.746094 31.613281 30.597656 29.761719 C 32.453125 27.910156 32.453125 24.894531 30.597656 23.042969 C 29.671875 22.113281 28.457031 21.652344 27.238281 21.652344 Z M 27.238281 30.539062 C 26.132812 30.539062 25.09375 30.109375 24.3125 29.328125 C 23.53125 28.546875 23.101562 27.507812 23.101562 26.402344 C 23.101562 25.296875 23.53125 24.257812 24.3125 23.476562 C 25.09375 22.691406 26.132812 22.261719 27.238281 22.261719 C 28.34375 22.261719 29.382812 22.691406 30.164062 23.476562 C 30.945312 24.257812 31.378906 25.296875 31.378906 26.402344 C 31.378906 27.507812 30.945312 28.546875 30.164062 29.328125 C 29.382812 30.109375 28.34375 30.539062 27.238281 30.539062 Z M 27.238281 22.664062 C 26.242188 22.664062 25.300781 23.050781 24.59375 23.757812 C 23.890625 24.464844 23.5 25.402344 23.5 26.402344 C 23.5 27.398438 23.890625 28.339844 24.59375 29.042969 C 25.300781 29.75 26.242188 30.140625 27.238281 30.140625 C 28.238281 30.140625 29.175781 29.75 29.882812 29.042969 C 30.589844 28.339844 30.976562 27.398438 30.976562 26.402344 C 30.976562 25.402344 30.589844 24.464844 29.882812 23.757812 C 29.175781 23.050781 28.238281 22.664062 27.238281 22.664062 Z M 18.394531 36.152344 C 18.375 36.152344 18.355469 36.140625 18.347656 36.121094 L 17.796875 34.40625 C 17.789062 34.382812 17.804688 34.351562 17.832031 34.34375 C 17.855469 34.335938 17.886719 34.351562 17.894531 34.375 L 18.445312 36.089844 C 18.453125 36.113281 18.4375 36.144531 18.410156 36.152344 C 18.40625 36.152344 18.402344 36.152344 18.394531 36.152344 Z M 18.746094 36.035156 C 18.722656 36.035156 18.703125 36.019531 18.699219 36 L 18.074219 33.902344 C 18.066406 33.875 18.082031 33.847656 18.105469 33.839844 C 18.136719 33.832031 18.160156 33.847656 18.167969 33.875 L 18.792969 35.972656 C 18.800781 35.996094 18.785156 36.027344 18.761719 36.03125 C 18.753906 36.035156 18.75 36.035156 18.746094 36.035156 Z M 18.746094 36.035156 "/>
<path style=" stroke:none;fill-rule:nonzero;fill:rgb(27.843137%,16.862745%,16.078431%);fill-opacity:1;" d="M 18.957031 35.296875 C 18.933594 35.296875 18.914062 35.285156 18.90625 35.261719 L 18.386719 33.507812 C 18.375 33.480469 18.390625 33.453125 18.417969 33.445312 C 18.449219 33.4375 18.472656 33.453125 18.480469 33.476562 L 19.003906 35.234375 C 19.011719 35.261719 18.996094 35.289062 18.96875 35.296875 C 18.964844 35.296875 18.960938 35.296875 18.957031 35.296875 Z M 18.957031 35.296875 "/>
<path style=" stroke:none;fill-rule:nonzero;fill:rgb(27.843137%,16.862745%,16.078431%);fill-opacity:1;" d="M 19.167969 34.527344 C 19.148438 34.527344 19.125 34.515625 19.121094 34.492188 L 18.753906 33.253906 C 18.742188 33.230469 18.757812 33.199219 18.785156 33.191406 C 18.8125 33.183594 18.839844 33.199219 18.847656 33.226562 L 19.214844 34.464844 C 19.222656 34.492188 19.207031 34.519531 19.183594 34.527344 C 19.179688 34.527344 19.171875 34.527344 19.167969 34.527344 Z M 19.167969 34.527344 "/>
<path style=" stroke:none;fill-rule:nonzero;fill:rgb(27.843137%,16.862745%,16.078431%);fill-opacity:1;" d="M 14.328125 17.097656 L 13.3125 16.085938 C 13.234375 16.007812 13.234375 15.878906 13.3125 15.800781 C 13.390625 15.722656 13.519531 15.722656 13.597656 15.800781 L 14.285156 16.492188 L 15.425781 14.96875 C 15.492188 14.882812 15.617188 14.863281 15.707031 14.929688 C 15.796875 14.996094 15.8125 15.121094 15.746094 15.210938 Z M 14.328125 17.097656 "/>
<path style=" stroke:none;fill-rule:nonzero;fill:rgb(27.843137%,16.862745%,16.078431%);fill-opacity:1;" d="M 14.328125 20.699219 L 13.3125 19.683594 C 13.234375 19.605469 13.234375 19.480469 13.3125 19.402344 C 13.390625 19.324219 13.519531 19.324219 13.597656 19.402344 L 14.285156 20.089844 L 15.425781 18.570312 C 15.492188 18.480469 15.617188 18.464844 15.707031 18.53125 C 15.796875 18.597656 15.8125 18.722656 15.746094 18.808594 Z M 14.328125 20.699219 "/>
<path style=" stroke:none;fill-rule:nonzero;fill:rgb(27.843137%,16.862745%,16.078431%);fill-opacity:1;" d="M 14.328125 24.300781 L 13.3125 23.285156 C 13.234375 23.207031 13.234375 23.078125 13.3125 23 C 13.390625 22.921875 13.519531 22.921875 13.597656 23 L 14.285156 23.691406 L 15.425781 22.171875 C 15.492188 22.082031 15.617188 22.0625 15.707031 22.128906 C 15.796875 22.195312 15.8125 22.320312 15.746094 22.410156 Z M 14.328125 24.300781 "/>
</g>
</svg>
