<?xml version="1.0" encoding="UTF-8"?>
<svg xmlns="http://www.w3.org/2000/svg" xmlns:xlink="http://www.w3.org/1999/xlink" width="96pt" height="96pt" viewBox="0 0 96 96" version="1.1">
<g id="surface1241826">
<path style=" stroke:none;fill-rule:nonzero;fill:rgb(44.313725%,77.254902%,59.607843%);fill-opacity:1;" d="M 58.328125 67.882812 C 58.015625 67.308594 57.710938 66.730469 57.421875 66.140625 C 57.421875 66.125 57.4375 66.113281 57.4375 66.097656 C 57.34375 65.835938 57.238281 65.546875 57.175781 65.324219 C 57.109375 65.101562 57.054688 64.878906 57.003906 64.65625 C 56.953125 64.722656 56.898438 64.785156 56.847656 64.839844 C 56.6875 65.011719 56.464844 65.089844 56.253906 65.074219 C 54.328125 67.019531 51.03125 67.503906 48.433594 67.515625 C 45.847656 67.53125 42.738281 67.1875 40.546875 65.625 C 40.546875 65.707031 40.53125 65.796875 40.53125 65.875 C 40.425781 66.324219 40.257812 66.753906 40.113281 67.203125 C 40.097656 67.242188 40.074219 67.28125 40.046875 67.320312 C 40.074219 67.410156 40.085938 67.515625 40.074219 67.636719 C 39.992188 68.410156 38.984375 68.960938 39.324219 69.773438 C 39.574219 70.363281 40.347656 70.613281 40.914062 70.757812 C 41.753906 70.96875 42.605469 71.046875 43.457031 71.179688 C 44.601562 71.363281 45.742188 71.519531 46.898438 71.625 C 48.195312 71.730469 49.507812 71.78125 50.808594 71.71875 C 51.976562 71.652344 53.09375 71.453125 54.234375 71.285156 C 55.757812 71.0625 57.976562 70.21875 58.367188 68.539062 C 58.40625 68.382812 58.488281 68.25 58.578125 68.171875 C 58.5 68.09375 58.40625 67.988281 58.328125 67.882812 Z M 58.328125 67.882812 "/>
<path style=" stroke:none;fill-rule:nonzero;fill:rgb(98.823529%,74.901961%,58.431373%);fill-opacity:1;" d="M 56.703125 62.832031 C 56.203125 63.121094 55.679688 63.382812 55.125 63.617188 C 52.253906 64.800781 49.035156 65.339844 45.9375 64.96875 C 43.96875 64.734375 42.171875 64.128906 40.558594 63.160156 C 40.585938 63.394531 40.597656 63.644531 40.597656 63.882812 C 40.6875 63.90625 40.769531 63.960938 40.847656 64.039062 C 42.738281 65.769531 45.886719 66.125 48.339844 66.097656 C 50.742188 66.074219 53.957031 65.730469 55.585938 63.710938 C 55.757812 63.5 55.953125 63.433594 56.152344 63.460938 C 56.308594 63.277344 56.492188 63.121094 56.703125 63 C 56.703125 63 56.714844 63 56.714844 62.988281 C 56.714844 62.921875 56.703125 62.882812 56.703125 62.832031 Z M 56.703125 62.832031 "/>
<path style=" stroke:none;fill-rule:nonzero;fill:rgb(99.607843%,74.901961%,6.27451%);fill-opacity:1;" d="M 62.988281 26.921875 C 62.148438 23.089844 59.890625 19.78125 56.335938 17.996094 C 52.949219 16.304688 48.996094 16.027344 45.324219 16.722656 C 41.570312 17.433594 37.855469 19.175781 35.152344 21.90625 C 32.382812 24.691406 30.792969 28.339844 30.871094 32.277344 L 31.171875 32.277344 C 31.148438 33.667969 31.238281 35.070312 31.359375 36.464844 C 31.421875 36.449219 31.488281 36.421875 31.554688 36.410156 C 31.542969 36.253906 31.515625 36.082031 31.5 35.925781 C 31.476562 35.726562 31.460938 35.53125 31.4375 35.335938 C 31.382812 35.214844 31.371094 35.070312 31.410156 34.902344 C 31.660156 33.917969 32.382812 33.101562 32.945312 32.300781 C 33.511719 31.515625 33.824219 30.703125 34.21875 29.835938 C 34.902344 28.3125 36.03125 25.964844 37.960938 25.871094 C 37.960938 25.871094 37.960938 25.871094 37.972656 25.871094 C 38.328125 25.203125 39.507812 25.492188 39.324219 26.332031 C 39.007812 27.683594 39.101562 29.046875 39.128906 30.414062 C 39.5625 30.4375 39.980469 30.492188 40.402344 30.558594 C 39.824219 29.101562 40.046875 27.378906 40.046875 25.84375 C 40.046875 24.914062 41.488281 24.808594 41.488281 25.738281 C 41.476562 27.210938 41.214844 28.902344 41.84375 30.28125 C 41.9375 30.492188 41.921875 30.675781 41.859375 30.832031 C 42.226562 30.910156 42.578125 30.988281 42.945312 31.070312 C 43 31.082031 43.050781 31.09375 43.105469 31.09375 C 42.84375 29.230469 42.816406 27.339844 42.816406 25.453125 C 42.816406 24.519531 44.257812 24.414062 44.257812 25.347656 C 44.257812 27.367188 44.285156 29.375 44.601562 31.371094 C 45.21875 31.449219 45.820312 31.515625 46.4375 31.554688 C 45.964844 29.558594 45.769531 27.523438 45.753906 25.464844 C 45.753906 24.53125 47.1875 24.425781 47.199219 25.359375 C 47.210938 27.472656 47.394531 29.574219 47.933594 31.632812 C 48.511719 31.660156 49.089844 31.6875 49.667969 31.710938 C 49.535156 30.636719 49.089844 29.546875 48.867188 28.496094 C 48.644531 27.460938 48.289062 26.027344 49.089844 25.136719 C 49.707031 24.441406 50.796875 25.398438 50.179688 26.09375 C 49.71875 26.605469 50.285156 28.285156 50.453125 28.941406 C 50.691406 29.847656 51.03125 30.792969 51.125 31.738281 C 51.214844 31.738281 51.292969 31.738281 51.386719 31.738281 C 51.53125 31.738281 51.6875 31.738281 51.832031 31.726562 C 51.570312 29.558594 50.71875 27.484375 50.886719 25.28125 C 50.964844 24.347656 52.382812 24.636719 52.304688 25.554688 C 52.148438 27.589844 53.015625 29.613281 53.277344 31.621094 C 53.734375 31.554688 54.195312 31.449219 54.613281 31.265625 C 54.5625 29.347656 54.222656 27.5 53.671875 25.660156 C 53.527344 25.1875 53.839844 24.835938 54.222656 24.730469 C 54.300781 24.652344 54.390625 24.585938 54.511719 24.546875 C 55.769531 24.085938 57.042969 25.410156 57.792969 26.25 C 58.75 27.328125 59.679688 28.496094 60.375 29.757812 C 60.914062 30.726562 61.019531 31.84375 61.386719 32.878906 C 61.675781 33.707031 61.914062 34.0625 62.464844 34.652344 C 62.632812 34.847656 62.871094 35.085938 63.09375 35.359375 C 63.515625 32.539062 63.605469 29.71875 62.988281 26.921875 Z M 62.988281 26.921875 "/>
<path style=" stroke:none;fill-rule:nonzero;fill:rgb(98.823529%,74.901961%,58.431373%);fill-opacity:1;" d="M 64.746094 40.636719 C 64.722656 40.164062 64.683594 38.996094 64.183594 38.679688 C 64.066406 40.464844 63.828125 42.238281 63.566406 44.011719 C 64.027344 43.746094 64.484375 43.3125 64.617188 42.945312 C 64.867188 42.226562 64.773438 41.371094 64.746094 40.636719 Z M 32.183594 42.042969 C 32.039062 40.664062 31.871094 39.285156 31.710938 37.921875 C 30.6875 38.367188 30.660156 40.152344 30.78125 41.242188 C 30.886719 42.1875 31.121094 43.144531 31.542969 44.011719 C 31.75 44.429688 32.09375 44.96875 32.460938 45.257812 C 32.367188 44.179688 32.289062 43.105469 32.183594 42.042969 Z M 62.304688 39.035156 C 62.398438 38.65625 62.488281 38.289062 62.570312 37.90625 C 62.121094 37.734375 61.953125 37.066406 62.304688 36.699219 C 62.292969 36.6875 62.28125 36.660156 62.265625 36.648438 C 62.109375 36.421875 61.9375 36.199219 61.742188 35.992188 C 61.402344 35.609375 60.992188 35.253906 60.71875 34.824219 C 60.257812 34.101562 59.957031 33.3125 59.761719 32.484375 C 59.578125 31.777344 59.445312 31.015625 59.078125 30.386719 C 58.472656 29.363281 57.765625 28.390625 56.992188 27.5 C 56.582031 27.027344 56.152344 26.566406 55.652344 26.199219 C 55.519531 26.109375 55.390625 26.015625 55.246094 25.949219 C 55.730469 27.75 56.03125 29.585938 56.046875 31.449219 C 56.046875 31.488281 56.046875 31.527344 56.03125 31.566406 C 56.125 31.828125 56.058594 32.117188 55.730469 32.300781 C 53.34375 33.550781 50.414062 33.140625 47.828125 33.050781 C 46.308594 32.984375 44.835938 32.957031 43.339844 32.644531 C 41.792969 32.316406 40.242188 31.855469 38.65625 31.84375 C 38.40625 31.84375 38.222656 31.738281 38.089844 31.582031 C 37.855469 31.5 37.683594 31.304688 37.683594 30.976562 C 37.671875 29.78125 37.59375 28.589844 37.695312 27.394531 C 37.171875 27.617188 36.75 28.207031 36.476562 28.652344 C 36.003906 29.414062 35.597656 30.214844 35.269531 31.054688 C 34.941406 31.871094 34.535156 32.566406 34.023438 33.273438 C 33.8125 33.5625 33.5625 33.863281 33.339844 34.179688 L 33.339844 35.320312 C 33.222656 35.453125 33.050781 35.53125 32.894531 35.558594 C 32.917969 35.78125 32.945312 36.003906 32.957031 36.226562 C 33.140625 38.234375 33.445312 40.230469 33.640625 42.238281 C 33.984375 45.585938 33.996094 48.996094 34.835938 52.265625 C 35.570312 55.113281 36.84375 57.871094 38.917969 59.996094 C 39.128906 60.207031 39.335938 60.402344 39.546875 60.601562 C 39.625 60.640625 39.691406 60.703125 39.746094 60.785156 C 41.660156 62.4375 43.917969 63.394531 46.515625 63.59375 C 49.589844 63.816406 52.816406 63.277344 55.558594 61.832031 C 56.03125 61.585938 56.480469 61.320312 56.898438 61.007812 C 56.9375 60.902344 56.992188 60.808594 57.042969 60.71875 C 57.199219 60.457031 57.449219 60.351562 57.699219 60.351562 C 58.183594 59.90625 58.605469 59.40625 58.972656 58.839844 C 59.8125 57.527344 60.3125 56.046875 60.613281 54.523438 C 60.929688 52.949219 61.085938 51.359375 61.269531 49.773438 C 61.480469 48 61.78125 46.242188 62.042969 44.484375 C 62.265625 42.933594 62.488281 41.371094 62.632812 39.808594 C 62.386719 39.652344 62.214844 39.390625 62.304688 39.035156 Z M 41.738281 38.023438 C 41.53125 38.472656 41.148438 38.839844 40.6875 39.046875 C 39.992188 39.375 39.179688 39.417969 38.589844 38.863281 C 38.078125 38.378906 38.023438 37.644531 38.117188 36.949219 C 37.816406 37.078125 37.527344 37.238281 37.304688 37.367188 C 36.503906 37.839844 35.820312 36.554688 36.621094 36.09375 C 38.707031 34.875 42.226562 34.207031 42.921875 37.328125 C 43.105469 38.0625 42.1875 38.417969 41.738281 38.023438 Z M 44.875 45.21875 C 44.953125 43.851562 45.164062 42.515625 45.230469 41.148438 C 45.296875 39.875 45.363281 38.601562 45.492188 37.328125 C 45.492188 37.316406 45.492188 37.304688 45.492188 37.277344 L 45.507812 37.132812 C 45.597656 36.214844 47.054688 36.253906 46.949219 37.171875 C 46.820312 38.351562 46.738281 39.519531 46.699219 40.714844 C 46.648438 42 46.476562 43.261719 46.371094 44.535156 C 46.28125 45.691406 46.214844 46.898438 46.410156 48.039062 C 46.515625 48.65625 46.6875 49.40625 47.121094 49.929688 C 47.316406 49.902344 47.539062 49.957031 47.710938 50.179688 L 48.066406 50.613281 C 48.472656 51.109375 48.039062 52.09375 47.316406 51.792969 C 44.824219 50.71875 44.746094 47.527344 44.875 45.21875 Z M 49.941406 57.582031 C 48.65625 58.960938 46.582031 57.921875 45.113281 57.503906 C 44.21875 57.238281 44.640625 55.863281 45.53125 56.125 C 46.410156 56.386719 48.183594 57.359375 48.957031 56.53125 C 49.601562 55.847656 50.574219 56.910156 49.941406 57.582031 Z M 56.398438 38.207031 C 56.335938 38.089844 56.253906 37.984375 56.164062 37.867188 C 56.164062 37.960938 56.164062 38.050781 56.152344 38.128906 C 56.03125 39.035156 55.179688 39.863281 54.222656 39.71875 C 53.34375 39.585938 52.738281 38.679688 52.816406 37.800781 C 52.828125 37.695312 52.84375 37.59375 52.871094 37.488281 C 52.789062 37.539062 52.726562 37.605469 52.660156 37.671875 C 52.003906 38.328125 51.03125 37.265625 51.6875 36.609375 C 52.699219 35.597656 54.207031 35.347656 55.519531 35.765625 C 56.03125 35.859375 56.492188 36.148438 56.886719 36.515625 C 57.214844 36.792969 57.488281 37.132812 57.6875 37.527344 C 58.121094 38.367188 56.886719 38.984375 56.398438 38.207031 Z M 56.398438 38.207031 "/>
<path style=" stroke:none;fill-rule:nonzero;fill:rgb(44.313725%,77.254902%,59.607843%);fill-opacity:1;" d="M 67.203125 73.816406 C 66.53125 72.976562 65.417969 72.515625 64.472656 72.109375 C 63.316406 71.613281 62.136719 71.179688 61.074219 70.496094 C 60.613281 70.195312 60.179688 69.851562 59.785156 69.484375 C 59.761719 69.550781 59.71875 69.605469 59.695312 69.65625 C 59.65625 69.605469 59.601562 69.550781 59.5625 69.5 C 58.789062 71.246094 56.765625 72.242188 54.96875 72.636719 C 52.214844 73.226562 49.429688 73.316406 46.636719 73.070312 C 45.257812 72.949219 43.90625 72.6875 42.539062 72.53125 C 41.609375 72.414062 40.648438 72.28125 39.769531 71.914062 C 39.023438 71.597656 38.3125 71.101562 38.011719 70.339844 C 36.359375 71.285156 34.496094 71.835938 32.695312 72.425781 C 31.4375 72.84375 27.550781 74.289062 28.835938 76.179688 C 29.613281 77.320312 30.964844 77.847656 32.261719 78.175781 C 33.65625 78.527344 35.070312 78.699219 36.476562 78.949219 C 38.945312 79.394531 41.425781 79.65625 43.929688 79.777344 C 43.917969 79.695312 43.917969 79.617188 43.929688 79.539062 C 44.234375 79.539062 44.535156 79.539062 44.824219 79.511719 C 45.097656 79.566406 45.375 79.605469 45.636719 79.632812 C 45.585938 79.695312 45.546875 79.761719 45.492188 79.828125 C 46.738281 79.855469 47.988281 79.839844 49.234375 79.777344 C 49.484375 79.761719 49.734375 79.75 49.980469 79.734375 C 51.203125 79.894531 52.398438 79.722656 53.550781 79.304688 C 53.578125 79.355469 53.605469 79.40625 53.617188 79.460938 C 55.453125 79.289062 57.292969 79.09375 59.128906 78.910156 C 61.609375 78.671875 64.746094 78.359375 66.546875 76.429688 C 67.214844 75.734375 67.921875 74.722656 67.203125 73.816406 Z M 67.203125 73.816406 "/>
<path style=" stroke:none;fill-rule:nonzero;fill:rgb(0%,0%,0%);fill-opacity:1;" d="M 67.253906 71.953125 C 66.097656 71.152344 64.773438 70.691406 63.488281 70.128906 C 61.585938 69.289062 60.21875 68.054688 59.011719 66.386719 L 59.011719 66.085938 C 59.011719 65.835938 58.90625 65.667969 58.761719 65.5625 C 58.75 65.535156 58.75 65.507812 58.734375 65.496094 C 58.59375 64.996094 58.460938 64.5 58.34375 64 C 58.199219 63.355469 58 62.503906 58.160156 61.808594 C 59.578125 60.625 60.652344 59.117188 61.347656 57.28125 C 62.476562 54.300781 62.503906 51.019531 62.976562 47.90625 C 63.09375 47.148438 63.210938 46.398438 63.316406 45.636719 C 64.171875 45.425781 65.074219 44.796875 65.613281 44.140625 C 66.375 43.210938 66.191406 41.738281 66.179688 40.625 C 66.164062 39.496094 65.8125 37.90625 64.800781 37.355469 C 64.839844 37.316406 64.867188 37.289062 64.890625 37.25 C 64.667969 37.105469 64.457031 36.949219 64.273438 36.75 C 65.257812 31.449219 65.21875 25.726562 62.097656 21.144531 C 59.917969 17.945312 56.414062 15.988281 52.671875 15.265625 C 44.980469 13.78125 36.160156 17.105469 31.828125 23.707031 C 30.109375 26.316406 29.324219 29.429688 29.414062 32.539062 C 29.429688 32.800781 29.546875 32.984375 29.703125 33.078125 C 29.71875 34.519531 29.835938 35.976562 29.964844 37.40625 C 29.964844 37.460938 29.980469 37.5 29.992188 37.539062 C 29.363281 38.578125 29.230469 40.085938 29.324219 41.214844 C 29.492188 43.25 30.332031 46.164062 32.527344 46.84375 C 32.550781 46.84375 32.566406 46.859375 32.589844 46.859375 C 32.761719 48.839844 32.984375 50.808594 33.484375 52.738281 C 34.269531 55.769531 35.703125 58.644531 37.867188 60.941406 C 38.128906 61.21875 38.390625 61.480469 38.667969 61.730469 C 39.113281 62.488281 39.128906 63.460938 39.140625 64.328125 C 39.152344 64.984375 39.113281 65.625 39.089844 66.28125 C 38.929688 66.441406 38.851562 66.664062 38.917969 66.925781 C 38.785156 67.019531 38.707031 67.164062 38.679688 67.371094 C 38.640625 67.78125 38.195312 68.121094 38.011719 68.488281 C 37.984375 68.554688 37.960938 68.621094 37.933594 68.683594 C 37.066406 69.300781 36.054688 69.707031 35.070312 70.089844 C 33.222656 70.796875 31.304688 71.246094 29.574219 72.242188 C 28.507812 72.84375 27.5 73.726562 27.183594 74.957031 C 26.855469 76.257812 27.839844 77.53125 28.8125 78.238281 C 29.980469 79.09375 31.4375 79.5 32.828125 79.800781 C 34.335938 80.128906 35.898438 80.339844 37.421875 80.589844 C 41.59375 81.257812 45.847656 81.402344 50.074219 81.191406 C 51.988281 81.089844 53.894531 80.863281 55.808594 80.65625 C 57.109375 80.511719 58.40625 80.445312 59.707031 80.3125 C 62.332031 80.039062 65.257812 79.550781 67.28125 77.714844 C 68.1875 76.886719 68.960938 75.773438 68.949219 74.511719 C 68.949219 73.410156 68.09375 72.53125 67.253906 71.953125 Z M 58.328125 67.882812 C 58.40625 67.988281 58.488281 68.082031 58.566406 68.1875 C 58.472656 68.277344 58.394531 68.394531 58.355469 68.554688 C 57.960938 70.234375 55.742188 71.074219 54.222656 71.296875 C 53.078125 71.46875 51.964844 71.664062 50.796875 71.730469 C 49.496094 71.796875 48.183594 71.742188 46.882812 71.636719 C 45.730469 71.546875 44.585938 71.390625 43.445312 71.191406 C 42.59375 71.046875 41.738281 70.980469 40.898438 70.773438 C 40.335938 70.628906 39.5625 70.378906 39.3125 69.789062 C 38.96875 68.972656 39.980469 68.421875 40.058594 67.648438 C 40.074219 67.53125 40.058594 67.425781 40.03125 67.332031 C 40.058594 67.292969 40.074219 67.253906 40.097656 67.214844 C 40.242188 66.78125 40.402344 66.335938 40.519531 65.890625 C 40.519531 65.8125 40.53125 65.71875 40.53125 65.640625 C 42.738281 67.203125 45.847656 67.53125 48.421875 67.53125 C 51.019531 67.515625 54.3125 67.042969 56.242188 65.089844 C 56.453125 65.101562 56.675781 65.011719 56.832031 64.851562 C 56.886719 64.785156 56.9375 64.734375 56.992188 64.667969 C 57.042969 64.890625 57.09375 65.113281 57.160156 65.339844 C 57.214844 65.5625 57.332031 65.835938 57.421875 66.113281 C 57.410156 66.125 57.410156 66.140625 57.410156 66.152344 C 57.710938 66.730469 58.015625 67.320312 58.328125 67.882812 Z M 40.558594 63.144531 C 42.171875 64.128906 43.96875 64.722656 45.9375 64.957031 C 49.035156 65.339844 52.265625 64.785156 55.125 63.605469 C 55.679688 63.382812 56.203125 63.121094 56.703125 62.816406 C 56.703125 62.871094 56.714844 62.921875 56.714844 62.960938 C 56.714844 62.960938 56.703125 62.960938 56.703125 62.976562 C 56.492188 63.082031 56.308594 63.25 56.152344 63.433594 C 55.953125 63.410156 55.742188 63.488281 55.585938 63.683594 C 53.957031 65.71875 50.757812 66.046875 48.339844 66.074219 C 45.886719 66.097656 42.75 65.746094 40.847656 64.011719 C 40.769531 63.933594 40.675781 63.894531 40.597656 63.855469 C 40.585938 63.617188 40.570312 63.382812 40.558594 63.144531 Z M 64.183594 38.667969 C 64.683594 38.984375 64.734375 40.152344 64.746094 40.625 C 64.773438 41.371094 64.867188 42.226562 64.617188 42.933594 C 64.484375 43.3125 64.027344 43.734375 63.566406 43.996094 C 63.828125 42.238281 64.066406 40.453125 64.183594 38.667969 Z M 31.542969 43.996094 C 31.121094 43.128906 30.886719 42.1875 30.78125 41.226562 C 30.660156 40.136719 30.675781 38.351562 31.710938 37.90625 C 31.871094 39.285156 32.039062 40.664062 32.183594 42.027344 C 32.289062 43.089844 32.382812 44.15625 32.460938 45.230469 C 32.078125 44.953125 31.738281 44.417969 31.542969 43.996094 Z M 31.398438 34.902344 C 31.359375 35.070312 31.371094 35.214844 31.421875 35.335938 C 31.4375 35.53125 31.460938 35.726562 31.488281 35.925781 C 31.5 36.082031 31.527344 36.253906 31.542969 36.410156 C 31.476562 36.421875 31.410156 36.4375 31.34375 36.464844 C 31.226562 35.070312 31.121094 33.667969 31.160156 32.277344 L 30.859375 32.277344 C 30.78125 28.339844 32.367188 24.691406 35.136719 21.90625 C 37.855469 19.175781 41.554688 17.433594 45.308594 16.722656 C 48.996094 16.027344 52.949219 16.304688 56.320312 17.996094 C 59.878906 19.769531 62.121094 23.089844 62.976562 26.921875 C 63.59375 29.71875 63.5 32.539062 63.054688 35.335938 C 62.832031 35.058594 62.609375 34.808594 62.425781 34.625 C 61.875 34.023438 61.636719 33.667969 61.347656 32.855469 C 60.980469 31.816406 60.875 30.714844 60.335938 29.730469 C 59.640625 28.46875 58.722656 27.289062 57.75 26.226562 C 57.003906 25.386719 55.730469 24.058594 54.46875 24.519531 C 54.351562 24.558594 54.246094 24.625 54.183594 24.703125 C 53.8125 24.796875 53.5 25.164062 53.628906 25.636719 C 54.167969 27.472656 54.523438 29.335938 54.574219 31.238281 C 54.15625 31.410156 53.695312 31.515625 53.238281 31.59375 C 52.972656 29.585938 52.109375 27.5625 52.265625 25.53125 C 52.34375 24.609375 50.925781 24.324219 50.847656 25.253906 C 50.675781 27.460938 51.515625 29.53125 51.792969 31.699219 C 51.636719 31.699219 51.492188 31.710938 51.347656 31.710938 C 51.253906 31.710938 51.175781 31.710938 51.085938 31.710938 C 50.992188 30.765625 50.652344 29.820312 50.414062 28.917969 C 50.246094 28.273438 49.679688 26.578125 50.140625 26.066406 C 50.757812 25.371094 49.679688 24.425781 49.050781 25.109375 C 48.261719 26.003906 48.617188 27.433594 48.828125 28.46875 C 49.050781 29.519531 49.496094 30.597656 49.628906 31.6875 C 49.050781 31.660156 48.472656 31.632812 47.894531 31.605469 C 47.355469 29.558594 47.160156 27.460938 47.160156 25.332031 C 47.160156 24.402344 45.714844 24.519531 45.714844 25.4375 C 45.730469 27.5 45.925781 29.53125 46.398438 31.527344 C 45.78125 31.488281 45.164062 31.4375 44.5625 31.34375 C 44.246094 29.347656 44.21875 27.339844 44.21875 25.320312 C 44.21875 24.386719 42.777344 24.507812 42.777344 25.425781 C 42.777344 27.316406 42.800781 29.203125 43.066406 31.070312 C 43.011719 31.054688 42.960938 31.042969 42.90625 31.042969 C 42.539062 30.964844 42.1875 30.886719 41.816406 30.804688 C 41.898438 30.660156 41.910156 30.464844 41.804688 30.253906 C 41.175781 28.875 41.4375 27.183594 41.449219 25.714844 C 41.449219 24.78125 40.019531 24.898438 40.007812 25.820312 C 39.992188 27.339844 39.769531 29.0625 40.359375 30.53125 C 39.941406 30.464844 39.507812 30.414062 39.089844 30.386719 C 39.0625 29.019531 38.96875 27.65625 39.285156 26.304688 C 39.480469 25.464844 38.289062 25.175781 37.933594 25.84375 C 37.933594 25.84375 37.933594 25.84375 37.921875 25.84375 C 35.992188 25.9375 34.863281 28.300781 34.179688 29.808594 C 33.785156 30.6875 33.46875 31.488281 32.90625 32.277344 C 32.355469 33.101562 31.632812 33.917969 31.398438 34.902344 Z M 38.917969 59.984375 C 36.84375 57.855469 35.570312 55.101562 34.835938 52.253906 C 33.996094 48.984375 33.984375 45.558594 33.640625 42.226562 C 33.429688 40.21875 33.140625 38.222656 32.957031 36.214844 C 32.933594 35.992188 32.917969 35.765625 32.894531 35.542969 C 33.0625 35.519531 33.222656 35.4375 33.339844 35.308594 L 33.339844 34.167969 C 33.5625 33.851562 33.824219 33.535156 34.023438 33.261719 C 34.535156 32.550781 34.941406 31.855469 35.269531 31.042969 C 35.597656 30.214844 35.992188 29.402344 36.476562 28.640625 C 36.75 28.195312 37.171875 27.605469 37.695312 27.378906 C 37.605469 28.5625 37.683594 29.769531 37.683594 30.964844 C 37.683594 31.292969 37.867188 31.488281 38.089844 31.566406 C 38.222656 31.710938 38.40625 31.816406 38.65625 31.828125 C 40.242188 31.855469 41.792969 32.300781 43.339844 32.628906 C 44.835938 32.945312 46.308594 32.984375 47.828125 33.039062 C 50.429688 33.140625 53.34375 33.535156 55.730469 32.289062 C 56.058594 32.117188 56.125 31.828125 56.03125 31.554688 C 56.03125 31.515625 56.046875 31.476562 56.046875 31.4375 C 56.03125 29.558594 55.730469 27.734375 55.246094 25.9375 C 55.390625 26.003906 55.519531 26.09375 55.652344 26.1875 C 56.152344 26.554688 56.582031 27.027344 56.992188 27.484375 C 57.765625 28.378906 58.472656 29.347656 59.078125 30.375 C 59.445312 31.003906 59.589844 31.777344 59.761719 32.472656 C 59.96875 33.300781 60.257812 34.085938 60.71875 34.808594 C 60.992188 35.242188 61.402344 35.609375 61.742188 35.976562 C 61.925781 36.1875 62.109375 36.398438 62.265625 36.632812 C 62.28125 36.648438 62.292969 36.660156 62.304688 36.6875 C 61.9375 37.054688 62.121094 37.734375 62.570312 37.894531 C 62.488281 38.273438 62.398438 38.65625 62.304688 39.023438 C 62.214844 39.390625 62.386719 39.640625 62.648438 39.769531 C 62.503906 41.332031 62.292969 42.894531 62.058594 44.441406 C 61.792969 46.203125 61.492188 47.960938 61.28125 49.734375 C 61.097656 51.320312 60.941406 52.921875 60.625 54.484375 C 60.3125 56.007812 59.824219 57.488281 58.984375 58.800781 C 58.617188 59.367188 58.199219 59.878906 57.710938 60.3125 C 57.464844 60.296875 57.214844 60.402344 57.054688 60.679688 C 57.003906 60.769531 56.953125 60.875 56.910156 60.96875 C 56.492188 61.269531 56.046875 61.546875 55.574219 61.792969 C 52.828125 63.238281 49.601562 63.777344 46.53125 63.554688 C 43.929688 63.355469 41.671875 62.398438 39.757812 60.746094 C 39.691406 60.664062 39.625 60.613281 39.5625 60.5625 C 39.335938 60.390625 39.128906 60.191406 38.917969 59.984375 Z M 66.546875 76.441406 C 64.734375 78.371094 61.597656 78.6875 59.128906 78.921875 C 57.292969 79.09375 55.453125 79.304688 53.617188 79.472656 C 53.605469 79.421875 53.578125 79.367188 53.550781 79.316406 C 52.382812 79.722656 51.1875 79.90625 49.980469 79.75 C 49.734375 79.761719 49.484375 79.777344 49.234375 79.789062 C 47.988281 79.839844 46.738281 79.855469 45.492188 79.839844 C 45.546875 79.777344 45.597656 79.710938 45.636719 79.644531 C 45.363281 79.605469 45.085938 79.566406 44.824219 79.527344 C 44.523438 79.550781 44.234375 79.566406 43.929688 79.550781 C 43.917969 79.632812 43.917969 79.710938 43.929688 79.789062 C 41.4375 79.671875 38.945312 79.40625 36.476562 78.960938 C 35.070312 78.710938 33.65625 78.542969 32.261719 78.1875 C 30.964844 77.859375 29.613281 77.335938 28.835938 76.191406 C 27.550781 74.316406 31.4375 72.859375 32.695312 72.4375 C 34.496094 71.835938 36.359375 71.285156 38.011719 70.351562 C 38.3125 71.113281 39.023438 71.613281 39.769531 71.925781 C 40.648438 72.292969 41.609375 72.4375 42.539062 72.542969 C 43.90625 72.703125 45.257812 72.964844 46.636719 73.082031 C 49.429688 73.332031 52.226562 73.238281 54.96875 72.648438 C 56.765625 72.253906 58.789062 71.257812 59.5625 69.511719 C 59.601562 69.5625 59.65625 69.617188 59.695312 69.667969 C 59.71875 69.605469 59.761719 69.550781 59.785156 69.5 C 60.179688 69.867188 60.613281 70.207031 61.074219 70.507812 C 62.136719 71.191406 63.304688 71.625 64.472656 72.125 C 65.429688 72.53125 66.546875 73.003906 67.203125 73.828125 C 67.921875 74.722656 67.214844 75.734375 66.546875 76.441406 Z M 66.546875 76.441406 "/>
<path style=" stroke:none;fill-rule:nonzero;fill:rgb(0%,0%,0%);fill-opacity:1;" d="M 48.039062 50.625 L 47.683594 50.191406 C 47.515625 49.980469 47.304688 49.917969 47.09375 49.941406 C 46.675781 49.429688 46.503906 48.683594 46.386719 48.050781 C 46.1875 46.898438 46.253906 45.703125 46.347656 44.546875 C 46.453125 43.273438 46.609375 42.015625 46.675781 40.730469 C 46.726562 39.546875 46.804688 38.367188 46.921875 37.183594 C 47.027344 36.265625 45.570312 36.226562 45.480469 37.144531 L 45.46875 37.289062 C 45.46875 37.304688 45.46875 37.316406 45.46875 37.34375 C 45.335938 38.617188 45.269531 39.875 45.203125 41.160156 C 45.140625 42.527344 44.929688 43.867188 44.851562 45.230469 C 44.71875 47.539062 44.8125 50.730469 47.277344 51.804688 C 48.011719 52.109375 48.445312 51.125 48.039062 50.625 Z M 48.957031 56.53125 C 48.183594 57.371094 46.410156 56.386719 45.53125 56.125 C 44.640625 55.863281 44.21875 57.238281 45.113281 57.503906 C 46.582031 57.921875 48.667969 58.960938 49.941406 57.582031 C 50.574219 56.910156 49.601562 55.847656 48.957031 56.53125 Z M 57.671875 37.527344 C 57.464844 37.132812 57.1875 36.804688 56.871094 36.515625 C 56.480469 36.148438 56.019531 35.859375 55.507812 35.765625 C 54.195312 35.359375 52.6875 35.597656 51.675781 36.609375 C 51.019531 37.265625 52.003906 38.328125 52.644531 37.671875 C 52.710938 37.605469 52.789062 37.539062 52.855469 37.488281 C 52.828125 37.59375 52.816406 37.695312 52.804688 37.800781 C 52.726562 38.679688 53.328125 39.585938 54.207031 39.71875 C 55.167969 39.863281 56.019531 39.035156 56.136719 38.128906 C 56.152344 38.039062 56.152344 37.945312 56.152344 37.867188 C 56.230469 37.972656 56.308594 38.089844 56.386719 38.207031 C 56.886719 38.984375 58.121094 38.367188 57.671875 37.527344 Z M 42.933594 37.316406 C 42.238281 34.191406 38.71875 34.863281 36.632812 36.082031 C 35.832031 36.554688 36.503906 37.828125 37.316406 37.355469 C 37.550781 37.222656 37.828125 37.066406 38.128906 36.9375 C 38.039062 37.632812 38.089844 38.367188 38.601562 38.851562 C 39.191406 39.402344 40.007812 39.363281 40.703125 39.035156 C 41.148438 38.824219 41.542969 38.457031 41.753906 38.011719 C 42.1875 38.417969 43.105469 38.0625 42.933594 37.316406 Z M 42.933594 37.316406 "/>
</g>
</svg>
